<svg xmlns="http://www.w3.org/2000/svg" version="1.1" viewBox="0 0 700 700">
  <circle id="aspa-circle" cx="350" cy="350" r="350" fill="#20513f"/>
  <g id="aspa-wordmark" fill="#fff">
    <path d="M598,350h-36.1c-1,0-1.9-.8-2-1.9-.9-12.7-2.7-25.2-5.3-37.4,0-.5-.5-.8-1-.8h-37.6c-.6,0-1,.4-1,1v37c0,1.1-.9,2-2,2h-36c-1.1,0-2-.9-2-2v-211.1c0-1.5,1.7-2.5,3-1.7,72.5,43.3,121.3,122.3,122,212.8,0,1.1-.9,2-2,2ZM516,270h25.1c.7,0,1.2-.7.9-1.4-6.7-17.2-15.1-33.4-25.2-48.4-.5-.8-1.8-.4-1.8.6v48.2c0,.6.4,1,1,1Z"/>
    <path d="M355,102.1v245.9c0,1.1.9,2,2,2h36c1.1,0,2-.9,2-2v-37c0-.6.4-1,1-1h29c22.1,0,40-17.9,40-40v-123c0-12.2-7.4-23.1-18.6-27.7-27.6-11.6-57.8-18.3-89.4-19.2-1.1,0-2.1.9-2.1,2ZM415,270h-19c-.6,0-1-.4-1-1v-123.8c0-.6.6-1.1,1.2-1,7.3,1.4,14.5,3.1,21.6,5,4.3,1.2,7.2,5.2,7.2,9.6v101.1c0,5.5-4.5,10-10,10Z"/>
    <path d="M345,201.1v-68.3c0-18.5-16.6-32.5-34.8-29.6-19.7,3.2-38.7,8.6-56.6,16.1-11.2,4.7-18.6,15.6-18.6,27.7v57.9c0,10.8,5.8,20.7,15.1,26l49.8,28.5c3.1,1.8,5,5.1,5,8.7v31.9c0,5.5-4.5,10-10,10h-10c-5.5,0-10-4.5-10-10v-19.1c0-.7-.4-1.4-1-1.7l-36-20.6c-1.3-.8-3,.2-3,1.7v49.7c0,22.1,17.9,40,40,40h30c22.1,0,40-17.9,40-40v-53.5c0-10.8-5.8-20.7-15.1-26l-49.8-28.5c-3.1-1.8-5-5.1-5-8.7v-34.4c0-4.5,2.9-8.4,7.2-9.6,3.5-1,6.9-1.9,10.4-2.7,6.3-1.5,12.3,3.3,12.3,9.7v24.2c0,.7.4,1.4,1,1.7l36,20.6c1.3.8,3-.2,3-1.7Z"/>
    <path d="M102,350h36.1c1,0,1.9-.8,2-1.9.9-12.7,2.7-25.2,5.3-37.4,0-.5.5-.8,1-.8h37.6c.6,0,1,.4,1,1v37c0,1.1.9,2,2,2h36c1.1,0,2-.9,2-2v-211.1c0-1.5-1.7-2.5-3-1.7-72.5,43.3-121.3,122.3-122,212.8,0,1.1.9,2,2,2ZM184,270h-25.1c-.7,0-1.2-.7-.9-1.4,6.7-17.2,15.1-33.4,25.2-48.4.5-.8,1.8-.4,1.8.6v48.2c0,.6-.4,1-1,1Z"/>
  </g>
  <g id="aspa-wheat" fill="#fce275">
    <path d="M309.6,628.3v5.2c.9.1,2.2.3,3.2.3v12.8c-4.3-.5-8.6-1.2-12.9-1.9l-.7-6.2c-.3-2.2-1.7-4.1-3.8-4.7-.2,0-.4-.1-.7-.2l-2.8-.5c-.9-.2-1.8-.4-2.7-.6l.5,6.2c.2,2.3,1.8,3.9,3.8,4.8,2.1.9,5,1.9,5.3,1.9-.2,0-3.2,0-5.6.2-2.2.2-4.4,1.1-5.5,3l-3,5.4c1,.2,2,.5,2.9.7l3,.5c.2,0,.5,0,.7,0,2.3.1,4.5-1,5.5-3.1l2.8-5.6h0c4.4.7,8.8,1.4,13.2,1.9v11.1h7.7v-33.9h-5.3c-1.1,1.2-2.9,2.2-5.6,2.5Z"/>
    <path d="M334.3,625.5c-6.4,0-10.3,3.9-10.3,11.5s3.2,10.4,8.1,10.4,3.8-.5,5-2.2c0,4.7-.1,9.5-2.8,9.5s-2.1-1.4-2.2-2.5h-7.8c.1,2.9,1.4,8.2,9.7,8.2s11-6.4,11-19.2-3-15.6-10.7-15.6ZM334.5,641.3c-1.8,0-2.7-1.5-2.7-5s.9-5.1,2.7-5.1,2.7,1.8,2.7,5.1-.9,5-2.7,5Z"/>
    <path d="M346.6,632.3h11.4c-3.4,5.5-7.9,16.5-9.2,27.4h8.3c1.3-9.5,4-19.9,8.6-28.1v-5.7h-19.1v6.4Z"/>
    <path d="M287.7,644.5l-5.7-1.3c-.2,0-.5,0-.7-.1-2.2-.2-4.4.9-5.6,2.8l-3.3,5.4,5.9,1.4c.2,0,.5,0,.7.1,2.3.3,4.5-.8,5.6-2.8l3-5.4Z"/>
    <path d="M284.1,631.4c-.2,0-.4-.1-.6-.2l-5.4-1.3.2,6.2c0,2.2,1.5,4.2,3.6,4.9.2,0,.4.2.7.2l5.6,1.3-.5-6.2c-.2-2.3-1.6-4.2-3.6-4.9Z"/>
    <path d="M276,641.8c-1.9-.4-3.7-1-5.6-1.5-.2,0-.5-.1-.7-.1-2.2-.3-4.4.6-5.7,2.5l-3.5,5.2,5.8,1.6c.2,0,.5.1.7.2,2.3.4,4.5-.6,5.7-2.5,1.1-1.7,2.2-3.6,3.2-5.4Z"/>
    <path d="M264.4,638.6c-1.9-.5-3.7-1-5.6-1.7-.2,0-.5-.1-.7-.2-2.2-.4-4.4.4-5.8,2.3l-3.7,5.1,5.7,1.9c.2,0,.5.1.7.2,2.2.5,4.5-.5,5.8-2.3l3.5-5.2Z"/>
    <path d="M270.2,638.1c.2,0,.4.2.7.2,1.9.5,3.7,1.1,5.6,1.5,0-2.1-.2-4.1-.2-6.2,0-2.3-1.4-4.3-3.4-5.1-.2,0-.4-.2-.6-.2l-5.4-1.5v6.2c0,2.2,1.3,4.2,3.4,5.1Z"/>
    <path d="M252.9,634.9l-5.5-1.9c-.2,0-.5-.1-.7-.2-2.2-.5-4.4.2-5.8,2l-3.9,4.9,5.6,2.2c.2,0,.5.2.7.2,2.3.5,4.6-.4,5.9-2.2l3.7-5.1Z"/>
    <path d="M258.7,634.7c.2.1.4.2.7.3,1.8.7,3.7,1.1,5.5,1.7v-6.2c0-2.2-1.3-4.2-3.2-5.2-.2-.1-.4-.2-.6-.3l-5.3-1.8-.3,6.2c0,2.3,1.2,4.3,3.2,5.3Z"/>
    <path d="M237.7,635.7l3.9-4.9-5.4-2.1c-.2,0-.5-.2-.7-.2-1.1-.3-2.2-.2-3.2,0-1,.3-2,.9-2.7,1.7l-4.1,4.7c1.8.8,3.6,1.7,5.5,2.4.2,0,.5.2.7.2,2.2.6,4.6-.1,6-1.9Z"/>
    <path d="M247.4,630.9c.2.1.4.2.7.3l5.5,1.9.3-6.2c.1-2.2-1.1-4.3-3-5.2-.2-.1-.4-.2-.6-.3l-5.2-2.1-.5,6.2c-.2,2.2,1,4.4,3,5.4Z"/>
    <path d="M230.4,626.3l-5.3-2.4c-.2,0-.4-.2-.7-.2-2.1-.7-4.5,0-6,1.6-1.4,1.6-2.8,3.1-4.2,4.6,1.8.9,3.6,1.7,5.5,2.5.2.1.4.2.7.3,2.2.7,4.6,0,6.1-1.6l4-4.7Z"/>
    <path d="M236.3,626.5c.2.1.4.2.6.3l5.4,2.1.5-6.2c.2-2.2-.9-4.3-2.8-5.4-.2-.1-.4-.2-.6-.3-1.7-.6-3.4-1.4-5.1-2.2l-.8,6.2c-.1,1.1,0,2.2.5,3.2.5.9,1.3,1.7,2.2,2.3Z"/>
    <path d="M219.4,621.3l-5.2-2.6c-.2-.1-.4-.2-.7-.3-2.1-.8-4.5-.2-6.1,1.4l-4.4,4.4,5.4,2.7c.2.1.4.2.7.3,2.2.8,4.6.3,6.1-1.3l4.2-4.6Z"/>
    <path d="M228.9,612.4c-1.7-.8-3.4-1.5-5.1-2.3-.4,2.1-.7,4.1-1,6.1-.4,2.2.7,4.4,2.6,5.5.2.1.4.2.6.3l5.3,2.4.8-6.2c.3-2.2-.7-4.4-2.5-5.5-.2-.1-.4-.2-.6-.3Z"/>
    <path d="M219.1,607.7c-.2-.1-.4-.2-.6-.4l-5-2.5-1.3,6.1c-.4,2.2.5,4.4,2.3,5.6.2.1.4.3.6.4l5.1,2.6,1-6.2c.4-2.2-.5-4.4-2.3-5.6Z"/>
    <path d="M208.7,615.8c-.9-.5-1.7-.9-2.6-1.3l-2.5-1.4c-.2-.1-.4-.2-.6-.3-2-.9-4.4-.5-6.1,1.1l-4.6,4.2,5.2,3c.2.1.4.2.7.3,2.1.9,4.5.5,6.1-1.1l4.4-4.4Z"/>
    <path d="M208.8,602.2c-.2-.1-.4-.3-.6-.4l-4.8-2.8-1.5,6c-.5,2.2.3,4.4,2.1,5.8.2.1.4.3.6.4l2.5,1.4c.8.5,1.7.9,2.6,1.3l1.2-6.1c.4-2.2-.3-4.5-2.1-5.7Z"/>
    <path d="M198.2,609.9c-1.7-1-3.4-1.9-5-2.9-.2-.1-.4-.2-.6-.3-2-1-4.4-.7-6.1.8l-4.8,4,5.1,3.2c.2.1.4.3.6.3.5.2,1.1.4,1.6.5.6,0,1.1,0,1.7,0,1.1-.2,2.1-.6,3-1.4l4.6-4.2Z"/>
    <path d="M188,603.6l-4.9-3.1c-.2-.1-.4-.2-.6-.3-2-1-4.4-.8-6.1.6l-4.9,3.8,4.9,3.5c.2.1.4.3.6.4,2.1,1,4.5.8,6.3-.7l4.8-4Z"/>
    <path d="M193.7,604.8c.2.1.4.3.6.4,1.6,1,3.3,1.9,5,2.9l1.5-6c.3-1.1.2-2.2-.1-3.2-.2-.5-.4-1-.7-1.4-.3-.4-.6-.8-1.1-1.2-.2-.2-.3-.3-.5-.4l-4.7-3-1.8,6c-.6,2.2.1,4.5,1.8,5.9Z"/>
    <path d="M177.9,596.9l-4.7-3.4c-.2-.1-.4-.3-.6-.4-1-.5-2.1-.8-3.2-.7-1.1,0-2.1.4-3,1.1l-5.1,3.6,2.4,1.9c.8.6,1.6,1.2,2.4,1.8.2.1.4.3.6.4,2,1.1,4.5,1,6.3-.4l4.9-3.8Z"/>
    <path d="M183.6,598.4c.2.1.4.3.6.4l4.9,3.1,1.7-6c.6-2.2,0-4.4-1.7-5.8-.2-.2-.3-.3-.5-.4l-4.6-3.2-2,5.9c-.7,2.1-.1,4.5,1.6,5.9Z"/>
    <path d="M168.2,589.8l-4.6-3.6c-.2-.1-.4-.3-.6-.4-1.9-1.2-4.3-1.1-6.2.2-1.7,1.2-3.5,2.3-5.2,3.4,1.5,1.3,3.1,2.5,4.7,3.7.2.2.4.3.6.4,2,1.2,4.4,1.2,6.3-.1l5.1-3.6Z"/>
    <path d="M173.8,591.5c.2.2.4.3.5.5l4.7,3.3,2-5.9c.7-2.1.2-4.4-1.4-5.9-.2-.2-.3-.3-.5-.4-.8-.5-1.5-1.1-2.3-1.6l-2.2-1.7-2.2,5.8c-.4,1.1-.5,2.2-.2,3.2.3,1,.8,2,1.6,2.7Z"/>
    <path d="M164.8,584.7l4.5,3.6,2.2-5.8c.8-2.1.4-4.4-1.1-6-.1-.2-.3-.3-.5-.5-1.5-1.2-3-2.3-4.4-3.5-.8,1.9-1.7,3.8-2.5,5.7-.9,2.1-.4,4.4,1.2,6,.2.2.3.3.5.5Z"/>
    <path d="M158.7,582.4l-4.4-3.8c-.2-.2-.4-.3-.6-.4-1.8-1.2-4.3-1.3-6.2-.1l-5.4,3.2,4.5,3.9c.2.2.4.3.6.4,1.9,1.3,4.4,1.4,6.2.1l5.2-3.4Z"/>
    <path d="M155.6,577.1l4.4,3.8,2.5-5.7c.9-2.1.5-4.4-.9-6-.1-.2-.3-.3-.5-.5l-4.2-3.7-2.7,5.6c-1,2-.6,4.4.9,6,.2.2.3.3.5.5Z"/>
    <path d="M149.6,574.5c-.7-.6-1.5-1.3-2.2-1.9l-2.1-2c-.2-.2-.4-.3-.5-.5-1.8-1.3-4.2-1.5-6.2-.4l-5.5,3,4.4,4.2c.2.2.4.3.6.5,1.8,1.4,4.3,1.6,6.2.4l5.4-3.3Z"/>
    <path d="M146.7,569.1l2.1,2c.7.6,1.4,1.3,2.2,1.9l2.7-5.6c.9-2,.7-4.4-.6-6.1-.1-.2-.3-.3-.5-.5l-4-3.9-2.9,5.5c-1,2-.8,4.4.6,6.1.1.2.3.4.5.5Z"/>
    <path d="M140.8,566.3c-1.4-1.3-2.8-2.6-4.2-4-.2-.2-.3-.3-.5-.5-1.7-1.4-4.1-1.7-6.1-.7l-5.6,2.8,4.2,4.4c.2.2.3.3.5.5.9.7,1.9,1.2,3,1.2,1.1,0,2.2-.1,3.2-.7l5.5-3Z"/>
    <path d="M138,560.9c1.3,1.4,2.8,2.7,4.2,4l2.9-5.5c.5-1,.7-2.1.6-3.1,0-1-.5-2-1.1-2.9-.1-.2-.3-.4-.4-.5l-3.9-4-3.1,5.4c-1.1,2-.9,4.4.4,6.1.1.2.3.4.5.5Z"/>
    <path d="M132.3,557.8l-4-4.2c-.2-.2-.3-.3-.5-.5-1.7-1.4-4-1.8-6.1-.9l-5.7,2.6,3.9,4.5c.2.2.3.3.5.5,1.8,1.5,4.2,1.8,6.3.8l5.6-2.8Z"/>
    <path d="M129.8,552.2l4,4.2,3.1-5.4c1.1-1.9,1-4.3-.2-6-.1-.2-.3-.4-.4-.5l-3.7-4.2-3.3,5.3c-1.2,1.9-1.2,4.4.1,6.2.1.2.3.4.5.5Z"/>
    <path d="M118.5,551.5l5.7-2.6-3.8-4.4c-.2-.2-.3-.4-.5-.5-.8-.7-1.8-1.2-2.9-1.4-1.1-.2-2.2-.1-3.2.3l-5.8,2.3,1.9,2.4c.6.8,1.3,1.5,2,2.3.2.2.3.4.5.5,1.7,1.6,4.1,2,6.2,1.1Z"/>
    <path d="M121.9,543.2l3.8,4.4,3.3-5.3c1.2-1.9,1.2-4.3,0-6-.1-.2-.3-.4-.4-.5-.6-.7-1.2-1.4-1.8-2.1l-1.7-2.2-3.6,5.1c-.6.9-1,2-1,3.1,0,1.1.3,2.1.9,3,.1.2.3.4.4.6Z"/>
    <path d="M110.6,542l5.8-2.3-3.6-4.6c-.1-.2-.3-.4-.5-.5-1.6-1.6-4-2.1-6.1-1.3-2,.7-3.9,1.4-5.9,2.1,1.2,1.6,2.5,3.2,3.7,4.8.2.2.3.4.5.5,1.6,1.6,4,2.2,6.1,1.4Z"/>
    <path d="M114.3,533.9l3.6,4.5,3.6-5.1c1.3-1.9,1.4-4.2.3-6.1-.1-.2-.2-.4-.4-.6-1.1-1.5-2.3-2.9-3.4-4.4-1.3,1.7-2.5,3.3-3.7,5-1.3,1.8-1.4,4.2-.3,6.1.1.2.3.4.4.6Z"/>
    <path d="M103.1,532.3l5.9-2.1-3.4-4.7c-.1-.2-.3-.4-.5-.6-1.5-1.6-3.9-2.3-6-1.6l-6,1.9,3.5,4.9c.1.2.3.4.5.6,1.5,1.7,3.9,2.4,6,1.6Z"/>
    <path d="M107.2,524.3l3.4,4.7,3.8-5c1.4-1.8,1.6-4.2.6-6.1,0-.2-.2-.4-.4-.6l-3.2-4.6-3.9,4.8c-1.4,1.7-1.6,4.1-.5,6.1.1.2.2.4.4.6Z"/>
    <path d="M95.9,522.3l6-1.9c-.6-.8-1.1-1.6-1.7-2.4l-1.6-2.4c-.1-.2-.3-.4-.4-.6-1.4-1.7-3.7-2.4-5.9-1.8l-6,1.6,3.2,5.1c.1.2.3.4.4.6,1.5,1.8,3.8,2.6,6,1.9Z"/>
    <path d="M100.4,514.5l1.6,2.4c.5.8,1.1,1.6,1.7,2.4l3.9-4.8c1.4-1.7,1.7-4.1.8-6,0-.2-.2-.4-.3-.6l-3-4.7-4.1,4.7c-1.5,1.7-1.8,4.1-.8,6.1,0,.2.2.4.3.6Z"/>
    <path d="M89.3,512l6-1.6c-1-1.6-2.1-3.2-3.1-4.9-.1-.2-.3-.4-.4-.6-1.3-1.8-3.6-2.6-5.8-2.1l-6.1,1.4,3,5.2c.1.2.3.4.4.6.7.9,1.6,1.6,2.7,1.9,1,.4,2.2.4,3.3.1Z"/>
    <path d="M93.9,504.4c1,1.7,2.1,3.3,3.1,4.9l4.1-4.7c.7-.8,1.2-1.8,1.4-2.9.2-1,0-2.1-.4-3.1,0-.2-.2-.4-.3-.6l-2.8-4.8-4.3,4.5c-1.6,1.6-2,4-1.1,6.1,0,.2.2.4.3.6Z"/>
    <path d="M83,501.4l6.1-1.4-2.9-5c-.1-.2-.3-.4-.4-.6-1.3-1.8-3.5-2.8-5.7-2.3l-6.1,1.1c.9,1.8,1.8,3.6,2.8,5.3.1.2.3.4.4.6,1.4,1.9,3.7,2.8,5.9,2.3Z"/>
    <path d="M88,494l2.9,5,4.3-4.5c1.6-1.6,2-3.9,1.2-5.9,0-.2-.2-.4-.3-.6-.9-1.6-1.7-3.3-2.6-5l-4.5,4.3c-1.6,1.6-2.2,4-1.3,6,0,.2.2.4.3.6Z"/>
    <path d="M77.2,490.6l6.1-1.1-2.6-5.2c-.1-.2-.2-.4-.4-.6-1.3-1.8-3.5-2.8-5.7-2.5l-6.2.9,1.2,2.7,1.4,2.7c.1.2.2.4.4.6,1.3,1.9,3.5,2.9,5.8,2.5Z"/>
    <path d="M82.4,483.4l2.6,5.1,4.5-4.3c1.6-1.6,2.2-3.9,1.5-5.9,0-.2-.2-.4-.3-.6l-1.3-2.5-1.1-2.5-4.7,4.1c-1.7,1.5-2.3,3.8-1.5,5.9,0,.2.2.4.3.7Z"/>
    <path d="M71.7,479.6l6.2-.9-2.4-5.3c0-.2-.2-.4-.3-.6-1.2-1.9-3.3-3-5.6-2.7l-6.2.7c.8,1.8,1.6,3.7,2.5,5.5.1.2.2.4.3.6,1.2,2,3.4,3.1,5.6,2.8Z"/>
    <path d="M77.3,472.6l2.4,5.3,4.7-4.2c1.7-1.5,2.4-3.8,1.7-5.8,0-.2-.1-.4-.2-.6-.8-1.7-1.6-3.4-2.3-5.1l-4.8,3.9c-1.7,1.4-2.4,3.7-1.7,5.8,0,.2.1.4.2.7Z"/>
    <path d="M66.7,468.4c2.1-.2,4.1-.4,6.2-.6-.8-1.8-1.4-3.6-2.2-5.4,0-.2-.2-.4-.3-.6-1.1-2-3.2-3.1-5.5-3l-6.3.4,2.2,5.6c0,.2.2.4.3.7,1.1,2,3.2,3.2,5.5,3Z"/>
    <path d="M72.6,461.6c.7,1.8,1.4,3.6,2.1,5.4,1.6-1.3,3.2-2.6,4.8-4,1.8-1.4,2.5-3.7,2-5.8,0-.2-.1-.4-.2-.6l-2.1-5.2-5,3.7c-1.8,1.4-2.5,3.6-2,5.8,0,.2.1.5.2.7Z"/>
    <path d="M62.2,457l6.3-.4-1.1-2.7c-.3-.9-.6-1.8-.9-2.7,0-.2-.2-.4-.3-.7-1-2-3-3.3-5.3-3.2h-6.3c0,.1,1.9,5.8,1.9,5.8,0,.2.2.5.3.7.5,1,1.3,1.9,2.2,2.4.9.6,2.1.8,3.2.8Z"/>
    <path d="M68.3,450.4c.3.9.6,1.8.9,2.7l1.1,2.7,4.9-3.7c.9-.7,1.5-1.6,1.9-2.5.4-1,.5-2.1.3-3.1,0-.2,0-.4-.2-.7l-1.8-5.3-5.1,3.5c-1.8,1.3-2.7,3.5-2.3,5.7,0,.2.1.5.2.7Z"/>
    <path d="M64.5,445.2l-1.9-5.5c0-.2-.2-.5-.3-.7-.9-2-2.9-3.4-5.1-3.4h-6.2c0-.1,1.6,5.7,1.6,5.7,0,.2.1.5.2.7.9,2.1,3.1,3.4,5.3,3.4l6.3-.2Z"/>
    <path d="M64.5,439.1l1.9,5.5,5.1-3.5c1.9-1.3,2.7-3.4,2.3-5.5,0-.2,0-.4-.1-.7l-1.5-5.4-5.3,3.3c-1.9,1.2-2.9,3.4-2.5,5.6,0,.2,0,.5.2.7Z"/>
    <path d="M60.9,433.7l-1.6-5.6c0-.2-.2-.5-.2-.7-.9-2-2.8-3.5-5-3.6l-6.2-.4c.5,1.9.8,3.9,1.4,5.8,0,.2.1.5.2.7.9,2.1,2.9,3.6,5.2,3.6h6.2Z"/>
    <path d="M61.2,427.6l1.6,5.6,5.3-3.3c1.9-1.2,2.9-3.3,2.6-5.4,0-.2,0-.4-.1-.7-.6-1.8-.9-3.6-1.3-5.4l-5.4,3.1c-2,1.1-3.1,3.3-2.7,5.5,0,.2,0,.5.1.7Z"/>
    <path d="M51.5,421.7l6.2.4-1.3-5.7c0-.2-.1-.5-.2-.7-.8-2.1-2.7-3.6-5-3.8-2.1-.2-4.1-.4-6.2-.6.2,1,.4,2,.6,2.9l.7,2.9c0,.2.1.5.2.7.8,2.2,2.7,3.7,5,3.8Z"/>
    <path d="M58.4,416l1.3,5.6,5.4-3.1c2-1.1,3.1-3.2,2.8-5.3,0-.2,0-.4-.1-.7l-.6-2.7c-.2-.9-.4-1.8-.6-2.7-1.8,1-3.7,1.9-5.5,2.9-2,1.1-3.1,3.2-2.8,5.4,0,.2,0,.5.1.7Z"/>
    <path d="M48.9,409.7l6.2.6-1-5.7c0-.2-.1-.5-.2-.7-.7-2.1-2.5-3.7-4.8-4l-6.2-.9,1.1,5.9c0,.2,0,.5.2.7.7,2.2,2.5,3.8,4.8,4Z"/>
    <path d="M57,409.9l5.5-2.9c2-1,3.2-3.1,3.1-5.2,0-.2,0-.4,0-.7l-1-5.5-5.6,2.7c-2,1-3.2,3.1-3.1,5.3,0,.2,0,.5,0,.7l1,5.7Z"/>
    <path d="M46.7,397.6l6.2.8c-.2-1-.4-1.9-.5-2.9l-.4-2.9c0-.2,0-.5-.1-.7-.5-2.2-2.3-3.8-4.5-4.2l-6.2-1.1.8,6c0,.2,0,.5.1.7.6,2.2,2.3,3.9,4.6,4.2Z"/>
    <path d="M54.4,395.3c.1,1,.3,1.9.5,2.8l5.6-2.7c2-1,3.3-3,3.3-5.1,0-.2,0-.4,0-.7l-.7-5.5-5.7,2.4c-2.1.9-3.4,2.9-3.3,5.1,0,.2,0,.5,0,.7l.4,2.9Z"/>
    <path d="M45.1,385.4l6.2,1.1-.7-5.8c0-.2,0-.5-.1-.7-.4-2.2-2.1-3.9-4.3-4.4l-6.1-1.4.5,6c0,.2,0,.5.1.7.5,2.2,2.3,4,4.5,4.4Z"/>
    <path d="M53.3,386.3l5.7-2.5c2.1-.9,3.3-2.8,3.4-5,0-.2,0-.4,0-.7l-.4-5.6-5.8,2.2c-2.1.8-3.5,2.8-3.6,5,0,.2,0,.5,0,.7l.7,5.7Z"/>
    <path d="M44,373.2l6.1,1.3-.4-5.8c0-.2,0-.5-.1-.7-.2-1.1-.8-2.1-1.5-2.9-.7-.8-1.7-1.4-2.7-1.7l-6-1.6c0,2,0,4,.3,6,0,.2,0,.5.1.7.4,2.3,2.1,4.1,4.3,4.6Z"/>
    <path d="M52.1,374.4l5.8-2.2c2.1-.8,3.5-2.7,3.6-4.8,0-.2,0-.4,0-.7-.2-1.9-.2-3.7-.2-5.6l-5.9,2c-1.1.4-2,1-2.6,1.9-.7.8-1,1.9-1.1,3,0,.2,0,.5,0,.7l.4,5.8Z"/>
    <path d="M43.3,361l6,1.6v-5.8c-.2-.2-.2-.5-.2-.7-.3-2.2-1.9-4.1-4.1-4.7-2-.6-4-1.2-6-1.8,0,2,0,4,.1,6,0,.2,0,.5,0,.7.3,2.3,1.9,4.2,4.1,4.7Z"/>
    <path d="M57.2,360.5c2.1-.7,3.6-2.6,3.9-4.7,0-.2,0-.4,0-.7,0-1.9-.1-3.7-.1-5.6-2,.6-4,1.2-6,1.8-2.1.6-3.6,2.5-3.9,4.7,0,.2,0,.5,0,.7v5.8c.1,0,6.1-2,6.1-2Z"/>
    <path d="M43.1,348.7c2,.6,3.9,1.2,6,1.8,0-1.9,0-3.9.1-5.8,0-.2,0-.5,0-.7-.2-2.2-1.7-4.1-3.9-4.9l-5.9-2.1-.2,6c0,.2,0,.5,0,.7.2,2.3,1.7,4.2,3.8,4.9Z"/>
    <path d="M51.1,344.7c0,1.9-.1,3.8-.1,5.8,2-.6,4-1.2,6-1.8,2.2-.6,3.8-2.4,4.1-4.5,0-.2,0-.4,0-.7v-5.6c.1,0-5.9,1.5-5.9,1.5-2.2.6-3.8,2.4-4.1,4.6,0,.2,0,.5,0,.7Z"/>
    <path d="M43.4,336.4l5.9,2.1c0-1.9,0-3.9.2-5.8,0-.2,0-.5,0-.7-.1-2.2-1.5-4.2-3.6-5l-5.8-2.3-.5,6c0,.2,0,.5,0,.7,0,1.1.4,2.2,1.1,3.1.7.9,1.6,1.6,2.6,1.9Z"/>
    <path d="M51.5,332.8c-.2,1.9-.2,3.8-.2,5.8l6-1.5c1.1-.3,2-.8,2.7-1.6.7-.8,1.3-1.7,1.5-2.8,0-.2,0-.4.1-.7l.4-5.6-6.1,1.3c-2.2.5-3.9,2.2-4.3,4.4,0,.2,0,.5-.1.7Z"/>
    <path d="M44.2,324.1l5.8,2.3.4-5.8c0-.2,0-.5,0-.7,0-2.2-1.3-4.2-3.4-5.1l-5.7-2.5-.8,6c0,.2,0,.5,0,.7,0,2.3,1.5,4.4,3.6,5.2Z"/>
    <path d="M52.4,320.8l-.4,5.8,6.1-1.3c2.2-.5,3.9-2.1,4.3-4.2,0-.2,0-.4.1-.7l.7-5.5-6.2,1c-2.2.4-4,2-4.5,4.2,0,.2,0,.5-.1.7Z"/>
    <path d="M45.5,311.9l5.7,2.5.7-5.8c0-.2,0-.5,0-.7,0-2.2-1.3-4.3-3.3-5.3l-5.6-2.7c-.2,1-.4,2-.5,3l-.4,3c0,.2,0,.5,0,.7,0,2.3,1.3,4.4,3.3,5.3Z"/>
    <path d="M53.9,309l-.7,5.7,6.1-1c2.2-.4,4-2,4.5-4,0-.2.1-.4.1-.7l.4-2.8c.1-.9.3-1.8.5-2.8l-6.2.8c-2.3.3-4,1.9-4.6,4,0,.2-.1.5-.1.7Z"/>
    <path d="M47.2,299.8l5.6,2.7,1-5.7c0-.2,0-.5,0-.7.1-2.2-1.1-4.4-3.1-5.4l-5.5-3-1.1,5.9c0,.2,0,.5,0,.7-.1,2.3,1,4.5,3.1,5.5Z"/>
    <path d="M55.8,297.1l-1,5.7,6.2-.8c2.2-.3,4.1-1.8,4.7-3.8,0-.2.1-.4.2-.7l1-5.5-6.2.5c-2.2.2-4.1,1.7-4.7,3.9,0,.2-.1.5-.2.7Z"/>
    <path d="M49.4,287.7c1.8,1,3.7,2,5.5,3,.2-1,.4-1.9.6-2.8l.7-2.8c0-.2,0-.5.1-.7.2-2.2-.9-4.4-2.8-5.5l-5.4-3.2-1.4,5.9c0,.2,0,.5-.1.7-.2,2.3.8,4.5,2.8,5.6Z"/>
    <path d="M58.1,285.4l-.6,2.8c-.2.9-.4,1.9-.6,2.8,2.1-.2,4.1-.4,6.2-.5,2.3-.2,4.2-1.6,4.9-3.6,0-.2.1-.4.2-.6l1.3-5.4-6.2.3c-2.2.1-4.2,1.6-4.9,3.7,0,.2-.2.4-.2.7Z"/>
    <path d="M52.1,275.7l5.4,3.2c.5-1.9.8-3.8,1.4-5.6,0-.2.1-.5.1-.7.3-2.2-.6-4.4-2.5-5.6l-5.2-3.4-1.6,5.8c0,.2-.1.5-.1.7-.4,2.3.7,4.5,2.6,5.7Z"/>
    <path d="M55.4,263.9l5.2,3.4,1.6-5.6c0-.2.1-.5.1-.7.4-2.2-.4-4.4-2.3-5.7l-5.1-3.6-1.9,5.7c0,.2-.1.5-.2.7-.4,2.3.6,4.6,2.5,5.8Z"/>
    <path d="M61.1,273.1c0,.2-.2.4-.2.7-.6,1.8-.9,3.7-1.4,5.6l6.2-.3c2.2-.1,4.1-1.5,5-3.4,0-.2.2-.4.2-.6l1.5-5.4h-6.2c-2.3,0-4.2,1.4-5.1,3.5Z"/>
    <path d="M59,252.1l5.1,3.6,1.9-5.5c0-.2.1-.5.2-.7.2-1.1.1-2.2-.3-3.2-.4-1-1-1.9-1.9-2.6l-4.9-3.8-1.1,2.8c-.4.9-.7,1.9-1,2.8,0,.2-.1.5-.2.7-.5,2.3.4,4.6,2.2,5.9Z"/>
    <path d="M64.4,261.6c0,.2-.2.4-.2.7l-1.6,5.6h6.2c2.2,0,4.2-1.3,5.1-3.3.1-.2.2-.4.2-.6l1.8-5.3-6.2-.2c-2.2,0-4.3,1.2-5.3,3.2Z"/>
    <path d="M63.2,240.6l4.9,3.8,2.1-5.4c0-.2.2-.5.2-.7.6-2.2-.2-4.5-1.9-5.9-1.6-1.3-3.2-2.7-4.8-4-.8,1.8-1.5,3.7-2.2,5.6,0,.2-.2.5-.2.7-.6,2.2.1,4.6,1.9,6Z"/>
    <path d="M68.2,250.2c-.1.2-.2.4-.3.7l-1.9,5.5,6.2.2c2.3,0,4.3-1.1,5.2-3,.1-.2.2-.4.3-.6.3-.9.6-1.8.9-2.6l1-2.6-6.2-.5c-1.1,0-2.2.2-3.2.7-.9.5-1.7,1.3-2.1,2.3Z"/>
    <path d="M67.8,229.2l4.8,4c.8-1.8,1.6-3.5,2.4-5.3,0-.2.2-.4.2-.7.7-2.1,0-4.5-1.7-6l-4.6-4.2-2.5,5.5c-.1.2-.2.4-.3.7-.7,2.2,0,4.6,1.6,6Z"/>
    <path d="M72.4,239.1c-.1.2-.2.4-.3.6l-2.1,5.4,6.2.5c2.3.2,4.4-.9,5.4-2.8.1-.2.2-.4.3-.6.7-1.7,1.3-3.5,2.1-5.2-2.1-.3-4.1-.5-6.2-.7-2.2-.2-4.3.9-5.4,2.8Z"/>
    <path d="M77.5,222.2l1.2-2.6,1.3-2.6c.1-.2.2-.4.3-.7.8-2.1.2-4.5-1.4-6l-4.5-4.4-2.7,5.4c-.1.2-.2.4-.3.7-.8,2.2-.3,4.5,1.4,6.1l4.7,4.2Z"/>
    <path d="M77.1,228.1c-.1.2-.2.4-.3.6-.8,1.8-1.6,3.5-2.4,5.3l6.2.7c2.2.3,4.4-.7,5.5-2.6.1-.2.2-.4.3-.6l2.3-5.1-6.1-1c-2.2-.3-4.4.7-5.5,2.6Z"/>
    <path d="M82.8,211.4c.9-1.7,1.8-3.5,2.7-5.2.1-.2.2-.4.3-.6.9-2,.4-4.4-1.1-6.1l-4.3-4.6-3,5.2c-.1.2-.2.4-.3.7-.9,2.1-.4,4.6,1.2,6.2l4.5,4.4Z"/>
    <path d="M82.2,217.2c-.1.2-.3.4-.4.6l-1.3,2.6-1.2,2.6,6.1.9c2.2.3,4.4-.6,5.6-2.3.1-.2.2-.4.4-.6l2.5-5-6.1-1.2c-2.2-.4-4.4.5-5.7,2.4Z"/>
    <path d="M88.6,200.8l2.9-5c.1-.2.2-.4.3-.6.4-1,.6-2.1.4-3.2-.1-1.1-.6-2.1-1.3-2.9l-4.1-4.7c-1.1,1.7-2.2,3.4-3.2,5.1-.1.2-.2.4-.3.7-.9,2.1-.5,4.6,1,6.2l4.3,4.6Z"/>
    <path d="M87.7,206.6c-.1.2-.3.4-.4.6-.9,1.7-1.8,3.4-2.6,5.1l6.1,1.2c2.2.5,4.3-.5,5.6-2.2.1-.2.3-.4.4-.6l2.8-4.8-6.1-1.5c-2.2-.5-4.5.3-5.8,2.1Z"/>
    <path d="M94.8,190.5l3.1-4.9c.1-.2.2-.4.3-.6,1-2,.7-4.5-.7-6.2l-3.9-4.9c-.6.8-1.2,1.6-1.7,2.5l-1.6,2.5c-.1.2-.3.4-.4.6-1,2.1-.8,4.5.7,6.2l4.1,4.7Z"/>
    <path d="M93.6,196.2c-.1.2-.3.4-.4.6l-2.9,5,6.1,1.4c2.2.5,4.4-.2,5.7-1.9.1-.2.3-.4.4-.6.9-1.6,2-3.1,3-4.7l-6-1.7c-1.1-.3-2.2-.3-3.2,0-1,.3-2,.9-2.6,1.8Z"/>
    <path d="M101.3,180.4l3.4-4.7c.1-.2.3-.4.4-.6,1.1-2,.9-4.4-.5-6.2l-3.7-5.1-3.5,4.9c-.1.2-.3.4-.4.6-1.1,2-1,4.5.4,6.2l3.9,4.9Z"/>
    <path d="M100,186.1c-.1.2-.3.4-.4.6l-3.1,4.9,6,1.7c2.2.6,4.4,0,5.8-1.7.2-.2.3-.3.4-.5l1.5-2.4c.5-.8,1.1-1.5,1.6-2.3l-5.9-2c-2.2-.7-4.4,0-5.9,1.7Z"/>
    <path d="M106.3,176.8l-3.3,4.7,5.9,1.9c2.1.7,4.5.1,5.9-1.4.2-.2.3-.3.4-.5l3.2-4.6-5.8-2.2c-2.1-.8-4.4-.2-5.9,1.5-.2.2-.3.4-.5.5Z"/>
    <path d="M108.3,170.6c1.1-1.6,2.4-3.1,3.6-4.6.1-.2.3-.4.4-.6,1.1-1.9,1.1-4.3-.2-6.2l-3.5-5.2-3.7,4.7c-.2.2-.3.4-.4.6-1.2,2-1.2,4.4.2,6.2,1.2,1.7,2.4,3.3,3.7,5Z"/>
    <path d="M113.5,167.2c-1.2,1.5-2.4,3-3.5,4.6,1.9.7,3.9,1.4,5.8,2.2,2.1.8,4.5.3,6-1.2.2-.1.3-.3.5-.5l3.5-4.4-5.7-2.4c-2.1-.9-4.4-.4-6,1.2-.2.2-.3.3-.5.5Z"/>
    <path d="M115.7,161.1l1.8-2.3c.6-.8,1.3-1.5,1.9-2.2.2-.2.3-.4.4-.6,1.2-1.8,1.3-4.3,0-6.2l-3.3-5.3-3.9,4.5c-.2.2-.3.4-.4.6-.6.9-1,2-1,3.1,0,1.1.3,2.2.9,3.1l3.5,5.2Z"/>
    <path d="M121,157.9c-.6.7-1.3,1.4-1.9,2.2l-1.8,2.3,5.7,2.4c1,.4,2.1.5,3.2.4,1.1-.2,2-.6,2.8-1.3.2-.1.3-.3.5-.5l3.7-4.2-5.6-2.6c-2-.9-4.4-.5-6.1.9-.2.2-.3.3-.5.5Z"/>
    <path d="M123.5,151.9l3.8-4.4c.2-.2.3-.4.5-.5,1.3-1.8,1.5-4.2.4-6.2l-3.1-5.4-4.1,4.4c-.2.2-.3.4-.5.6-1.4,1.9-1.4,4.4-.3,6.3l3.3,5.3Z"/>
    <path d="M128.8,148.8l-3.8,4.4,5.6,2.6c2,1,4.3.6,6-.8.2-.1.3-.3.5-.5l3.9-4-5.5-2.9c-2-1-4.4-.7-6.1.7-.2.1-.4.3-.5.5Z"/>
    <path d="M131.6,143l4-4.2c.2-.2.3-.4.5-.6.7-.9,1.1-1.9,1.2-3,.1-1.1,0-2.2-.6-3.2l-2.8-5.5c-1.4,1.4-2.9,2.7-4.3,4.2-.2.2-.3.4-.5.6-1.4,1.8-1.6,4.3-.5,6.3l3.1,5.4Z"/>
    <path d="M140.1,134.4l4.2-4c.2-.2.3-.3.5-.5,1.4-1.7,1.7-4.2.8-6.2l-2.6-5.6c-.8.7-1.5,1.3-2.3,2l-2.2,2.1c-.2.2-.3.3-.5.5-1.5,1.8-1.8,4.2-.8,6.2l2.8,5.5Z"/>
    <path d="M137.6,139.7c-.2.1-.4.3-.5.5l-4,4.2,5.5,2.8c2,1,4.4.8,6-.5.2-.1.3-.3.5-.5,1.3-1.3,2.7-2.6,4-3.9l-5.4-3.1c-1-.6-2.1-.8-3.2-.7-1.1,0-2.1.5-3,1.2Z"/>
    <path d="M148.8,126.1l4.4-3.8c.2-.2.4-.3.5-.5,1.5-1.6,1.9-4.1,1-6.2l-2.4-5.8-4.6,3.9c-.2.2-.4.3-.5.5-1.6,1.7-2,4.1-1.1,6.2l2.6,5.6Z"/>
    <path d="M146.2,131.4c-.2.1-.4.3-.5.5l-4.2,4,5.4,3.1c2,1.1,4.3,1,6-.3.2-.1.4-.3.5-.4l2-1.9c.7-.6,1.4-1.2,2.1-1.8l-5.3-3.3c-2-1.2-4.3-1-6.1.3Z"/>
    <path d="M161.6,130.9c.2-.1.4-.3.5-.4l4.2-3.7-5.1-3.5c-1.9-1.2-4.3-1.2-6.1,0-.2.1-.4.3-.6.4l-4.4,3.8,5.3,3.3c1.9,1.2,4.3,1.2,6.1,0Z"/>
    <path d="M157.9,118.2c1.5-1.3,3-2.4,4.5-3.6.2-.1.4-.3.5-.5,1.6-1.6,2.1-4,1.3-6.1l-2.2-5.9-4.7,3.7c-.2.2-.4.3-.5.5-1.6,1.6-2.2,4-1.3,6.1.8,1.9,1.6,3.8,2.4,5.8Z"/>
    <path d="M167.4,110.8l2.3-1.8c.8-.6,1.6-1.1,2.4-1.7.2-.1.4-.3.6-.5,1.6-1.5,2.3-3.8,1.6-6l-1.9-6-4.9,3.5c-.2.1-.4.3-.6.5-.8.8-1.4,1.7-1.7,2.8-.3,1-.2,2.2.2,3.3l2.2,5.9Z"/>
    <path d="M170.4,116c-1.8-1.3-4.2-1.4-6.1-.2-.2.1-.4.3-.6.4-1.5,1.2-3.1,2.3-4.5,3.6,1.7,1.1,3.4,2.3,5.2,3.5,1.9,1.3,4.3,1.4,6.1.3.2-.1.4-.2.6-.4l4.4-3.5-5-3.7Z"/>
    <path d="M177.1,103.7l4.7-3.4c.2-.1.4-.3.6-.4,1.7-1.4,2.4-3.7,1.8-5.9l-1.7-6-5.1,3.2c-.2.1-.4.3-.6.4-1.8,1.5-2.4,3.9-1.7,6.1l1.9,6Z"/>
    <path d="M179.9,109c-1.8-1.4-4.2-1.6-6.1-.5-.2.1-.4.2-.6.4-.8.6-1.6,1.1-2.3,1.7l-2.3,1.8,5,3.7c.9.7,1.9,1,3,1.1,1.1,0,2.1-.1,3.1-.6.2,0,.4-.2.6-.4l4.6-3.2-4.9-3.9Z"/>
    <path d="M187.1,96.9l4.9-3.1c.2-.1.4-.3.6-.4.4-.4.8-.8,1.1-1.2.3-.4.6-.9.8-1.4.4-1,.4-2.1.2-3.2l-1.4-6.1c-1.7,1-3.5,2-5.2,3-.2.1-.4.3-.6.4-1.8,1.5-2.6,3.8-2,6l1.7,6Z"/>
    <path d="M189.7,102.4c-1.7-1.5-4.1-1.8-6.1-.8-.2,0-.4.2-.6.3l-4.7,3.3,4.9,3.9c1.8,1.4,4.1,1.6,6,.7.2,0,.4-.2.6-.3l4.7-3-4.7-4.1Z"/>
    <path d="M193.1,95.5l-4.9,3.1,4.7,4.1c1.7,1.5,4,1.8,6,.9.2,0,.4-.2.6-.3,1.6-1,3.2-1.9,4.8-2.8l-4.5-4.3c-.8-.8-1.8-1.3-2.9-1.4-.5,0-1.1-.1-1.6,0-.5,0-1,.2-1.5.5-.2,0-.4.2-.6.3Z"/>
    <path d="M197.3,90.6l5-2.9c.2-.1.4-.3.6-.4,1.8-1.3,2.6-3.7,2.2-5.8l-1.2-6.1c-.9.5-1.8.9-2.7,1.4l-2.6,1.5c-.2.1-.4.3-.6.4-1.8,1.4-2.8,3.7-2.2,5.9l1.4,6.1Z"/>
    <path d="M203.4,89.5l-5,2.9,4.5,4.3c1.6,1.5,4,2,5.9,1.2.2,0,.4-.2.6-.3l2.4-1.4c.8-.5,1.7-.9,2.5-1.3l-4.4-4.5c-1.6-1.6-3.9-2-6-1.2-.2,0-.4.2-.6.3Z"/>
    <path d="M207.8,84.7l5.2-2.6c.2-.1.4-.2.6-.4,1.8-1.2,2.8-3.5,2.5-5.7l-1-6.2-5.4,2.7c-.2.1-.4.2-.6.4-1.9,1.3-2.9,3.5-2.5,5.7l1.2,6.1Z"/>
    <path d="M213.9,83.8l-5.1,2.6,4.4,4.5c1.6,1.6,3.9,2.2,5.9,1.4.2,0,.4-.2.6-.3l5-2.6-4.2-4.6c-1.5-1.6-3.8-2.2-5.9-1.4-.2,0-.4.2-.7.3Z"/>
    <path d="M218.5,79.2c1.7-.9,3.5-1.6,5.3-2.4.2,0,.4-.2.6-.3,1.9-1.2,3-3.3,2.7-5.6l-.7-6.2-5.5,2.5c-.2.1-.4.2-.6.3-2,1.2-3.1,3.4-2.7,5.6.3,2,.6,4.1,1,6.2Z"/>
    <path d="M229.5,74.2c1.8-.8,3.5-1.6,5.3-2.3.2,0,.4-.2.6-.3,1.9-1.1,3.1-3.2,2.9-5.4l-.5-6.2-5.6,2.2c-.2,0-.4.2-.7.3-1,.5-1.8,1.3-2.3,2.3-.5,1-.7,2.1-.6,3.2l.7,6.2Z"/>
    <path d="M231.2,80c-1.5-1.7-3.8-2.4-5.9-1.7-.2,0-.4.1-.7.2-1.7.8-3.5,1.5-5.2,2.4,1.4,1.5,2.8,3,4.2,4.6,1.5,1.7,3.8,2.3,5.9,1.7.2,0,.4-.1.6-.2l5.1-2.3-4-4.8Z"/>
    <path d="M246,67.4c.2,0,.4-.2.6-.3,2-1,3.3-3,3.2-5.3l-.2-6.2-5.7,1.9c-.2,0-.5.2-.7.3-2,1.1-3.3,3.2-3.1,5.5l.5,6.2,5.4-2.1Z"/>
    <path d="M242.1,75.5c-1.4-1.8-3.7-2.5-5.8-2-.2,0-.5.1-.7.2-1.8.7-3.5,1.5-5.3,2.3l4,4.7c.7.9,1.6,1.5,2.6,1.8,1,.3,2.1.4,3.1.1.2,0,.4-.1.6-.2l5.2-2-3.8-4.9Z"/>
    <path d="M257.4,63.6c.2,0,.5-.2.7-.3,2-1,3.3-3,3.4-5.2v-6.2c-1.9.6-3.8,1-5.7,1.7-.2,0-.5.2-.7.3-2.1,1-3.4,3.1-3.4,5.3l.2,6.2,5.5-1.9Z"/>
    <path d="M253.2,71.4c-1.3-1.8-3.6-2.7-5.8-2.2-.2,0-.5.1-.7.2l-5.4,2.1,3.8,4.9c1.4,1.8,3.6,2.6,5.7,2.1.2,0,.4,0,.7-.2l5.3-1.8-3.6-5.1Z"/>
    <path d="M269.7,59.9c2.1-.9,3.5-2.9,3.6-5.1,0-2.1.2-4.2.3-6.2-2,.4-3.9,1.1-5.8,1.6-.2,0-.5.1-.7.2-2.1.9-3.6,2.9-3.6,5.1v6.2s5.5-1.6,5.5-1.6c.2,0,.5-.2.7-.2Z"/>
    <path d="M264.4,67.7c-1.2-1.9-3.5-2.9-5.6-2.4-.2,0-.5.1-.7.2l-5.5,1.9,3.6,5.1c1.3,1.8,3.5,2.7,5.6,2.3.2,0,.4,0,.7-.2,1.8-.6,3.6-1.1,5.4-1.6l-3.4-5.3Z"/>
    <path d="M281.3,56.9c2.1-.8,3.6-2.7,3.8-5l.5-6.3-5.9,1.4c-.2,0-.5.1-.7.2-2.2.8-3.7,2.7-3.8,5l-.3,6.2,5.7-1.3c.2,0,.5-.1.7-.2Z"/>
    <path d="M270.2,61.9c-.2,0-.5,0-.7.1l-5.6,1.6,3.4,5.2c1.2,1.9,3.4,2.9,5.5,2.6.2,0,.4,0,.7-.1,1.8-.5,3.6-1.1,5.4-1.5-1-1.8-2.1-3.6-3.2-5.4-1.2-1.9-3.3-2.9-5.5-2.6Z"/>
    <path d="M287.2,61.8c-1.1-2-3.2-3.1-5.4-2.8-.2,0-.5,0-.7.1l-5.6,1.3,3.2,5.4c1.1,2,3.3,3.1,5.4,2.8.2,0,.4,0,.7-.1l5.4-1.3-2.9-5.5Z"/>
    <path d="M307.4,49.4c-.2-.1-.4-.2-.7-.3-2.1-.9-4.5-.5-6.1,1.2l-4.4,4.5c.9.4,1.7.8,2.6,1.3l2.5,1.4c.2.1.4.2.6.3,2.1.8,4.4.4,6.1-1.2l3.3-3.2c11-1.4,22.2-2.2,33.5-2.4v-2c-11.4.2-22.7,1-33.8,2.4l-3.8-2.1Z"/>
    <path d="M292,44.5c-.2,0-.5,0-.7.2-2.2.7-3.8,2.5-4,4.8l-.5,6.3c.9-.2,1.9-.4,2.8-.6l2.9-.5c.2,0,.5-.1.7-.2,2.1-.7,3.7-2.5,4-4.8l.5-4.1c15.5-2.6,31.4-4.1,47.4-4.4v-2c-15.9.2-31.7,1.7-47.1,4.3l-5.9,1.1Z"/>
    <path d="M298.8,59.5c-1-2-3.1-3.2-5.3-3.1-.2,0-.5,0-.7,0l-2.8.5c-.9.2-1.9.4-2.8.6l3,5.4c1.1,1.9,3.1,3.2,5.3,3.1.2,0,.4,0,.7,0l5.5-1c14.2-2.4,28.8-3.7,43.5-4v-2c-15,.3-29.8,1.6-44.4,4.1l-1.8-3.7Z"/>
    <path d="M406.9,645.6c-2.5-.2-5.4-.2-5.6-.2.2,0,3.2-1,5.3-1.9,2-.9,3.6-2.5,3.8-4.8l.5-6.2c-.9.2-1.8.4-2.7.6l-2.8.5c-.2,0-.4,0-.7.2-2,.6-3.5,2.5-3.8,4.7l-.7,6.2c-4,.7-8.1,1.2-12.1,1.8-.7-2.5-2.1-4-3.8-4.7,2-1.1,3.5-3.1,3.5-7.2s-3.2-9-9.8-9-10,4.1-10,9.3,1.3,5.8,3.4,7.2c-2.1,1.1-4.2,3.5-4.2,8,0,6.5,3.6,10.3,10.3,10.3s10.9-4,10.9-10.3,0-1,0-1.4c4.1-.5,8.1-1.1,12.1-1.8h0s2.8,5.6,2.8,5.6c1,2,3.2,3.2,5.5,3.1.2,0,.5,0,.7,0l3-.5c1-.2,2-.4,2.9-.7l-3-5.4c-1.1-1.9-3.2-2.9-5.5-3ZM377.9,631.2c1.8,0,2.6,1.1,2.6,3.9s-.9,4-2.6,4-2.7-1.2-2.7-4.2,1-3.8,2.6-3.8ZM377.9,654.5c-2,0-3-1.7-3-4.8s1-4.8,2.9-4.8,2.9,1.3,2.9,4.8-.9,4.9-2.9,4.9Z"/>
    <path d="M418.7,643.1c-.2,0-.5,0-.7.1l-5.7,1.3,3,5.4c1.1,2,3.3,3,5.6,2.8.2,0,.5,0,.7-.1l5.9-1.4-3.3-5.4c-1.2-1.9-3.4-3-5.6-2.8Z"/>
    <path d="M415.9,631.4c-2,.7-3.4,2.7-3.6,4.9l-.5,6.2,5.6-1.3c.2,0,.5-.1.7-.2,2.1-.8,3.5-2.7,3.6-4.9l.2-6.2-5.4,1.3c-.2,0-.4.1-.6.2Z"/>
    <path d="M430.3,640.1c-.2,0-.5,0-.7.1-1.9.5-3.7,1.1-5.6,1.5,1.1,1.8,2.2,3.6,3.2,5.4,1.2,1.9,3.4,2.9,5.7,2.5.2,0,.5,0,.7-.2l5.8-1.6-3.5-5.2c-1.2-1.9-3.5-2.9-5.7-2.5Z"/>
    <path d="M441.9,636.7c-.2,0-.5.1-.7.2-1.8.7-3.7,1.1-5.6,1.7l3.5,5.2c1.3,1.9,3.6,2.9,5.8,2.3.2,0,.5-.1.7-.2l5.7-1.9-3.7-5.1c-1.3-1.8-3.6-2.7-5.8-2.3Z"/>
    <path d="M427.1,628.6c-2,.8-3.3,2.8-3.4,5.1,0,2.1-.1,4.1-.2,6.2,1.9-.4,3.7-1,5.6-1.5.2,0,.5-.2.7-.2,2-.9,3.4-2.8,3.4-5.1v-6.2s-5.4,1.5-5.4,1.5c-.2,0-.4.1-.6.2Z"/>
    <path d="M453.3,632.9c-.2,0-.5.1-.7.2l-5.5,1.9,3.7,5.1c1.3,1.8,3.7,2.7,5.9,2.2.2,0,.5-.1.7-.2l5.6-2.2-3.9-4.9c-1.4-1.8-3.7-2.5-5.8-2Z"/>
    <path d="M440.6,635c.2,0,.4-.2.7-.3,2-1,3.3-3,3.2-5.3l-.3-6.2-5.3,1.8c-.2,0-.4.2-.6.3-1.9,1-3.2,2.9-3.2,5.2v6.2c1.9-.5,3.7-1,5.5-1.7Z"/>
    <path d="M467.8,628.5c-1-.3-2.2-.4-3.2,0-.2,0-.5.1-.7.2l-5.4,2.1,3.9,4.9c1.4,1.8,3.8,2.5,6,1.9.2,0,.5-.1.7-.2,1.9-.7,3.7-1.6,5.5-2.4l-4.1-4.7c-.7-.9-1.7-1.4-2.7-1.7Z"/>
    <path d="M451.9,631.2c.2,0,.4-.2.7-.3,2-1,3.1-3.2,3-5.4l-.5-6.2-5.2,2.1c-.2,0-.4.2-.6.3-1.9.9-3.1,3-3,5.2l.3,6.2,5.5-1.9Z"/>
    <path d="M475.6,623.6c-.2,0-.5.1-.7.2l-5.3,2.4,4,4.7c1.5,1.7,3.9,2.3,6.1,1.6.2,0,.5-.2.7-.3,1.8-.8,3.7-1.6,5.5-2.5-1.4-1.5-2.8-3-4.2-4.6-1.5-1.7-3.9-2.3-6-1.6Z"/>
    <path d="M457.7,628.9l5.4-2.1c.2,0,.4-.2.6-.3,1-.5,1.7-1.3,2.2-2.3.5-1,.7-2.1.5-3.2l-.8-6.2c-1.7.8-3.4,1.6-5.1,2.2-.2,0-.4.2-.6.3-1.9,1-3,3.1-2.8,5.4l.5,6.2Z"/>
    <path d="M486.4,618.4c-.2,0-.4.2-.7.3l-5.2,2.6,4.2,4.6c1.5,1.6,3.9,2.1,6.1,1.3.2,0,.4-.2.7-.3l5.4-2.7-4.4-4.4c-1.6-1.6-4-2.1-6.1-1.4Z"/>
    <path d="M468.8,624.4l5.3-2.4c.2,0,.4-.2.6-.3,1.9-1.2,2.9-3.3,2.6-5.5-.3-2-.7-4.1-1-6.1-1.7.9-3.4,1.6-5.1,2.3-.2,0-.4.2-.6.3-1.8,1.1-2.8,3.3-2.5,5.5l.8,6.2Z"/>
    <path d="M481.5,607.3c-.2.1-.4.2-.6.4-1.8,1.2-2.7,3.4-2.3,5.6l1,6.2,5.1-2.6c.2-.1.4-.2.6-.4,1.8-1.2,2.8-3.5,2.3-5.6l-1.3-6.1-5,2.5Z"/>
    <path d="M497,612.7c-.2,0-.4.2-.6.3l-2.5,1.4c-.8.5-1.7.9-2.6,1.3l4.4,4.4c1.6,1.6,4,2,6.1,1.1.2,0,.4-.2.7-.3l5.2-3-4.6-4.2c-1.7-1.5-4.1-1.9-6.1-1.1Z"/>
    <path d="M491.7,601.8c-.2.1-.4.2-.6.4-1.7,1.3-2.5,3.6-2.1,5.7l1.2,6.1c.9-.4,1.7-.9,2.6-1.3l2.5-1.4c.2-.1.4-.3.6-.4,1.8-1.3,2.6-3.6,2.1-5.8l-1.5-6-4.8,2.8Z"/>
    <path d="M507.4,606.6c-.2,0-.4.2-.6.3-1.6,1-3.3,2-5,2.9l4.6,4.2c.8.8,1.9,1.2,3,1.4.5,0,1.1,0,1.7,0,.5,0,1.1-.3,1.6-.5.2,0,.4-.2.6-.3l5.1-3.2-4.8-4c-1.7-1.5-4.1-1.8-6.1-.8Z"/>
    <path d="M517.6,600.1c-.2,0-.4.2-.6.3l-4.9,3.1,4.8,4c1.7,1.5,4.2,1.7,6.3.7.2,0,.4-.2.6-.4l4.9-3.5-4.9-3.8c-1.8-1.4-4.2-1.5-6.1-.6Z"/>
    <path d="M501.7,596c-.2.1-.4.3-.5.4-.4.3-.8.7-1.1,1.2-.3.4-.5.9-.7,1.4-.3,1-.4,2.1-.1,3.2l1.5,6c1.7-1,3.4-1.9,5-2.9.2-.1.4-.3.6-.4,1.7-1.4,2.4-3.7,1.8-5.9l-1.8-6-4.7,3Z"/>
    <path d="M530.6,592.5c-1.1,0-2.2.2-3.2.7-.2.1-.4.2-.6.4l-4.7,3.4,4.9,3.8c1.8,1.4,4.3,1.5,6.3.4.2-.1.4-.2.6-.4.8-.6,1.6-1.2,2.4-1.8l2.4-1.9-5.1-3.6c-.9-.7-2-1-3-1.1Z"/>
    <path d="M511,601.9l4.9-3.1c.2-.1.4-.3.6-.4,1.7-1.4,2.3-3.8,1.6-5.9l-2-5.9-4.6,3.2c-.2.1-.4.3-.5.4-1.6,1.4-2.3,3.6-1.7,5.8l1.7,6Z"/>
    <path d="M537,585.9c-.2.1-.4.3-.6.4l-4.6,3.6,5.1,3.6c1.8,1.3,4.3,1.3,6.3.1.2-.1.4-.3.6-.4,1.6-1.3,3.2-2.5,4.7-3.7-1.7-1.1-3.5-2.3-5.2-3.4-1.9-1.3-4.3-1.3-6.2-.2Z"/>
    <path d="M520.9,595.3l4.7-3.3c.2-.1.4-.3.5-.5.8-.7,1.4-1.7,1.6-2.7.3-1,.2-2.2-.2-3.2l-2.2-5.8-2.2,1.7c-.7.6-1.5,1.1-2.3,1.6-.2.1-.4.3-.5.4-1.6,1.4-2.1,3.7-1.4,5.9l2,5.9Z"/>
    <path d="M530.6,588.3l4.5-3.6c.2-.1.4-.3.5-.5,1.6-1.6,2-3.9,1.2-6-.8-1.9-1.6-3.8-2.5-5.7-1.4,1.2-2.9,2.3-4.4,3.5-.2.1-.4.3-.5.5-1.5,1.5-2,3.9-1.1,6l2.2,5.8Z"/>
    <path d="M546.3,578.2c-.2.1-.4.3-.6.4l-4.4,3.8,5.2,3.4c1.9,1.2,4.3,1.1,6.2-.1.2-.1.4-.3.6-.4l4.5-3.9-5.4-3.2c-1.9-1.2-4.4-1.1-6.2.1Z"/>
    <path d="M540,580.9l4.4-3.8c.2-.2.3-.3.5-.5,1.5-1.6,1.9-4,.9-6l-2.7-5.6-4.2,3.7c-.2.2-.3.3-.5.5-1.4,1.6-1.8,4-.9,6l2.5,5.7Z"/>
    <path d="M555.2,570.1c-.2.1-.4.3-.5.5l-2.1,2c-.7.7-1.5,1.3-2.2,1.9l5.4,3.3c2,1.2,4.4,1,6.2-.4.2-.1.4-.3.6-.5l4.4-4.2-5.5-3c-2-1.1-4.4-.9-6.2.4Z"/>
    <path d="M549.1,573c.7-.6,1.5-1.3,2.2-1.9l2.1-2c.2-.2.3-.3.5-.5,1.4-1.7,1.7-4.1.6-6.1l-2.9-5.5-4,3.9c-.2.2-.3.3-.5.5-1.4,1.7-1.6,4.1-.6,6.1l2.7,5.6Z"/>
    <path d="M563.9,561.8c-.2.1-.4.3-.5.5-1.3,1.4-2.8,2.7-4.2,4l5.5,3c1,.5,2.1.8,3.2.7,1.1,0,2.2-.5,3-1.2.2-.1.4-.3.5-.5l4.2-4.4-5.6-2.8c-2-1-4.4-.7-6.1.7Z"/>
    <path d="M562,560.9c.2-.2.3-.4.5-.5,1.3-1.8,1.5-4.2.4-6.1l-3.1-5.4-3.9,4c-.2.2-.3.3-.4.5-.6.9-1,1.9-1.1,2.9,0,1,.1,2.1.6,3.1l2.9,5.5c1.4-1.3,2.8-2.6,4.2-4Z"/>
    <path d="M572.2,553.1c-.2.1-.4.3-.5.5l-4,4.2,5.6,2.8c2,1,4.5.7,6.3-.8.2-.1.4-.3.5-.5l3.9-4.5-5.7-2.6c-2.1-.9-4.4-.5-6.1.9Z"/>
    <path d="M570.2,552.2c.2-.2.3-.4.5-.5,1.3-1.8,1.3-4.3.1-6.2l-3.3-5.3-3.7,4.2c-.2.2-.3.3-.4.5-1.3,1.7-1.4,4.1-.2,6l3.1,5.4,4-4.2Z"/>
    <path d="M583.1,542.6c-1.1.2-2.1.7-2.9,1.4-.2.2-.3.3-.5.5l-3.8,4.4,5.7,2.6c2.1.9,4.5.5,6.2-1.1.2-.2.4-.3.5-.5.7-.8,1.3-1.5,2-2.3l1.9-2.4-5.8-2.3c-1-.4-2.1-.5-3.2-.3Z"/>
    <path d="M578.1,543.2c.2-.2.3-.4.4-.6.6-.9.9-2,.9-3,0-1.1-.4-2.1-1-3.1l-3.6-5.1-1.7,2.2c-.6.7-1.2,1.4-1.8,2.1-.2.2-.3.3-.4.5-1.2,1.8-1.2,4.1,0,6l3.3,5.3,3.8-4.4Z"/>
    <path d="M587.7,534.6c-.2.2-.3.3-.5.5l-3.6,4.6,5.8,2.3c2.1.8,4.5.3,6.1-1.4.2-.2.3-.3.5-.5,1.2-1.6,2.5-3.1,3.7-4.8-1.9-.7-3.9-1.4-5.9-2.1-2.1-.8-4.5-.2-6.1,1.3Z"/>
    <path d="M585.7,533.9c.1-.2.3-.4.4-.6,1.1-1.9,1.1-4.3-.3-6.1-1.2-1.7-2.5-3.3-3.7-5-1.1,1.5-2.3,2.9-3.4,4.4-.1.2-.3.4-.4.6-1.1,1.8-1,4.2.3,6.1l3.6,5.1,3.6-4.5Z"/>
    <path d="M594.9,525c-.2.2-.3.4-.5.6l-3.4,4.7,5.9,2.1c2.1.7,4.5,0,6-1.6.2-.2.3-.4.5-.6l3.5-4.9-6-1.9c-2.2-.7-4.5,0-6,1.6Z"/>
    <path d="M592.8,524.3c.1-.2.3-.4.4-.6,1.1-1.9.9-4.3-.5-6.1l-3.9-4.8-3.2,4.6c-.1.2-.3.4-.4.6-1,1.9-.8,4.3.6,6.1l3.8,5,3.4-4.7Z"/>
    <path d="M601.7,515c-.1.2-.3.4-.4.6l-1.6,2.4c-.5.8-1.1,1.6-1.7,2.4l6,1.9c2.2.7,4.5,0,6-1.9.2-.2.3-.4.4-.6l3.2-5.1-6-1.6c-2.2-.6-4.5.1-5.9,1.8Z"/>
    <path d="M598.1,516.9l1.6-2.4c.1-.2.2-.4.3-.6,1-2,.7-4.4-.8-6.1l-4.1-4.7-3,4.7c-.1.2-.2.4-.3.6-.9,1.9-.6,4.3.8,6l3.9,4.8c.6-.8,1.1-1.6,1.7-2.4Z"/>
    <path d="M608.2,504.9c-.1.2-.3.4-.4.6-1,1.7-2.1,3.3-3.1,4.9l6,1.6c1.1.3,2.2.2,3.3-.1,1.1-.3,2-1,2.7-1.9.2-.2.3-.4.4-.6l3-5.2-6.1-1.4c-2.2-.5-4.5.3-5.8,2.1Z"/>
    <path d="M606.1,504.4c.1-.2.2-.4.3-.6.9-2,.5-4.4-1.1-6.1l-4.3-4.5-2.8,4.8c-.1.2-.2.4-.3.6-.4,1-.5,2.1-.4,3.1.2,1,.6,2,1.4,2.9l4.1,4.7c1-1.6,2.1-3.2,3.1-4.9Z"/>
    <path d="M614.2,494.4c-.1.2-.3.4-.4.6l-2.9,5,6.1,1.4c2.2.5,4.5-.4,5.9-2.3.2-.2.3-.4.4-.6.9-1.8,1.8-3.6,2.8-5.3l-6.1-1.1c-2.2-.4-4.4.5-5.7,2.3Z"/>
    <path d="M612,494c.1-.2.2-.4.3-.6.9-2,.3-4.4-1.3-6l-4.5-4.3c-.9,1.7-1.7,3.3-2.6,5-.1.2-.2.4-.3.6-.8,2-.4,4.3,1.2,5.9l4.3,4.5,2.9-5Z"/>
    <path d="M619.7,483.7c-.1.2-.3.4-.4.6l-2.6,5.2,6.1,1.1c2.2.4,4.5-.6,5.8-2.5.1-.2.3-.4.4-.6l1.4-2.7,1.2-2.7-6.2-.9c-2.2-.3-4.4.7-5.7,2.5Z"/>
    <path d="M617.6,483.4c.1-.2.2-.4.3-.7.8-2.1.2-4.4-1.5-5.9l-4.7-4.1-1.1,2.5-1.3,2.5c-.1.2-.2.4-.3.6-.7,2-.2,4.3,1.5,5.9l4.5,4.3,2.6-5.1Z"/>
    <path d="M624.8,472.8c-.1.2-.2.4-.3.6l-2.4,5.3,6.2.9c2.2.3,4.4-.8,5.6-2.8.1-.2.2-.4.3-.6.8-1.8,1.7-3.6,2.5-5.5l-6.2-.7c-2.3-.2-4.5.8-5.6,2.7Z"/>
    <path d="M622.7,472.6c0-.2.2-.4.2-.7.7-2.1,0-4.4-1.7-5.8l-4.8-3.9c-.7,1.7-1.5,3.4-2.3,5.1,0,.2-.2.4-.2.6-.6,2,0,4.3,1.7,5.8l4.7,4.2,2.4-5.3Z"/>
    <path d="M629.5,461.7c-.1.2-.2.4-.3.6-.7,1.8-1.4,3.6-2.2,5.4,2.1.2,4.1.4,6.2.6,2.2.2,4.4-1,5.5-3,.1-.2.2-.4.3-.7l2.2-5.6-6.3-.4c-2.3-.2-4.4,1-5.5,3Z"/>
    <path d="M627.4,461.6c0-.2.2-.5.2-.7.6-2.1-.2-4.4-2-5.8l-5-3.7-2.1,5.2c0,.2-.2.4-.2.6-.5,2.1.2,4.3,2,5.8,1.6,1.3,3.2,2.6,4.8,4,.8-1.8,1.4-3.6,2.1-5.4Z"/>
    <path d="M633.8,450.5c-.1.2-.2.4-.3.7-.3.9-.6,1.8-.9,2.7l-1.1,2.7,6.3.4c1.1,0,2.3-.2,3.2-.8.9-.6,1.7-1.4,2.2-2.4.1-.2.2-.4.3-.7l1.9-5.7h-6.3c-2.3-.2-4.3,1.1-5.3,3.1Z"/>
    <path d="M630.7,453.2c.3-.9.6-1.8.9-2.7,0-.2.1-.5.2-.7.4-2.2-.4-4.4-2.3-5.7l-5.1-3.5-1.8,5.3c0,.2-.1.4-.2.7-.2,1,0,2.1.3,3.1.4,1,1,1.9,1.9,2.5l4.9,3.7,1.1-2.7Z"/>
    <path d="M637.7,439c0,.2-.2.4-.3.7l-1.9,5.5,6.3.2c2.3,0,4.4-1.3,5.3-3.4.1-.2.2-.4.2-.7l1.6-5.8h-6.2c-2.3.1-4.3,1.5-5.1,3.5Z"/>
    <path d="M635.5,439.1c0-.2.1-.5.2-.7.3-2.2-.6-4.4-2.5-5.6l-5.3-3.3-1.5,5.4c0,.2-.1.4-.1.7-.4,2.1.5,4.3,2.3,5.5l5.1,3.5,1.9-5.5Z"/>
    <path d="M640.9,427.4c0,.2-.2.4-.2.7l-1.6,5.6h6.2c2.3-.2,4.3-1.6,5.2-3.7.1-.2.2-.4.2-.7.6-1.9,1-3.9,1.4-5.8l-6.2.4c-2.2.1-4.1,1.6-5,3.6Z"/>
    <path d="M638.8,427.6c0-.2.1-.5.1-.7.4-2.2-.7-4.4-2.7-5.5l-5.4-3.1c-.4,1.8-.8,3.6-1.3,5.4,0,.2-.1.4-.1.7-.3,2.1.7,4.2,2.6,5.4l5.3,3.3,1.6-5.6Z"/>
    <path d="M643.8,415.7c0,.2-.2.4-.2.7l-1.3,5.7,6.2-.4c2.2-.1,4.2-1.7,5-3.8,0-.2.2-.5.2-.7l.7-2.9c.2-1,.4-2,.6-2.9-2.1.2-4.1.4-6.2.6-2.3.2-4.2,1.7-5,3.8Z"/>
    <path d="M641.6,416c0-.2,0-.5.1-.7.2-2.2-.9-4.3-2.8-5.4-1.8-1-3.7-1.9-5.5-2.9-.1.9-.3,1.8-.6,2.7l-.6,2.7c0,.2,0,.4-.1.7-.2,2.1.9,4.2,2.8,5.3l5.4,3.1,1.3-5.6Z"/>
    <path d="M646.1,403.9c0,.2-.1.5-.2.7l-1,5.7,6.2-.6c2.2-.2,4.1-1.8,4.8-4,0-.2.1-.5.2-.7l1.1-5.9-6.2.9c-2.2.3-4.1,1.9-4.8,4Z"/>
    <path d="M644,404.3c0-.2,0-.5,0-.7.1-2.2-1.1-4.3-3.1-5.3l-5.6-2.7-1,5.5c0,.2,0,.4,0,.7-.1,2.1,1.1,4.2,3.1,5.2l5.5,2.9,1-5.7Z"/>
    <path d="M648.1,392c0,.2-.1.5-.1.7l-.4,2.9c-.1,1-.3,1.9-.5,2.9l6.2-.8c2.3-.3,4-2,4.6-4.2,0-.2.1-.5.1-.7l.8-6-6.2,1.1c-2.2.4-4,2.1-4.5,4.2Z"/>
    <path d="M645.6,395.3l.4-2.9c0-.2,0-.5,0-.7,0-2.2-1.3-4.2-3.3-5.1l-5.7-2.4-.7,5.5c0,.2,0,.5,0,.7,0,2.1,1.3,4.2,3.3,5.1l5.6,2.7c.2-.9.3-1.9.5-2.8Z"/>
    <path d="M649.5,380.1c0,.2,0,.5-.1.7l-.7,5.8,6.2-1.1c2.2-.4,4-2.1,4.5-4.4,0-.2,0-.5.1-.7l.5-6-6.1,1.4c-2.2.5-3.9,2.2-4.3,4.4Z"/>
    <path d="M647.5,380.6c0-.2,0-.5,0-.7-.1-2.2-1.5-4.2-3.6-5l-5.8-2.2-.4,5.6c0,.2,0,.5,0,.7,0,2.1,1.3,4.1,3.4,5l5.7,2.5.7-5.7Z"/>
    <path d="M651.9,365.2c-.7.8-1.3,1.8-1.5,2.9,0,.2,0,.5-.1.7l-.4,5.8,6.1-1.3c2.2-.5,3.9-2.3,4.3-4.6,0-.2,0-.5.1-.7.2-2,.2-4,.3-6l-6,1.6c-1.1.3-2,.9-2.7,1.7Z"/>
    <path d="M648.4,368.6c0-.2,0-.5,0-.7,0-1.1-.4-2.1-1.1-3-.7-.8-1.6-1.5-2.6-1.9l-5.9-2c0,1.9,0,3.7-.2,5.6,0,.2,0,.5,0,.7.1,2.1,1.5,4,3.6,4.8l5.8,2.2.4-5.8Z"/>
    <path d="M655,351.3c-2.2.7-3.8,2.5-4.1,4.7,0,.2,0,.5,0,.7v5.8c-.1,0,5.9-1.6,5.9-1.6,2.2-.6,3.8-2.5,4.1-4.7,0-.2,0-.5,0-.7,0-2,.1-4,.1-6-2,.6-4,1.2-6,1.8Z"/>
    <path d="M648.8,356.7c0-.2,0-.5,0-.7-.2-2.2-1.7-4.1-3.9-4.7-2-.6-3.9-1.2-6-1.8,0,1.9,0,3.7-.1,5.6,0,.2,0,.5,0,.7.2,2.1,1.7,4,3.9,4.7l5.9,2v-5.8Z"/>
    <path d="M650.9,344c0,.2,0,.5,0,.7,0,1.9.1,3.9.1,5.8,2-.6,4-1.2,6-1.8,2.1-.7,3.6-2.6,3.8-4.9,0-.2,0-.5,0-.7l-.2-6-5.9,2.1c-2.1.7-3.6,2.7-3.9,4.9Z"/>
    <path d="M648.9,344.7c0-.2,0-.5,0-.7-.3-2.2-1.9-4-4.1-4.6l-6-1.5v5.6c.1.2.2.5.2.7.3,2.1,1.9,3.9,4.1,4.5,2,.6,4,1.2,6,1.8,0-1.9,0-3.8-.1-5.8Z"/>
    <path d="M650.5,331.9c0,.2,0,.5,0,.7.2,1.9.2,3.9.2,5.8l5.9-2.1c1.1-.4,2-1.1,2.6-1.9.7-.9,1-2,1.1-3.1,0-.2,0-.5,0-.7l-.5-6-5.8,2.3c-2.1.8-3.5,2.8-3.6,5Z"/>
    <path d="M638,326.4l.4,5.6c0,.2,0,.5.1.7.2,1,.8,2,1.5,2.8.7.8,1.7,1.3,2.7,1.6l6,1.5c0-1.9,0-3.9-.2-5.8,0-.2,0-.5-.1-.7-.4-2.2-2.1-3.9-4.3-4.4l-6.1-1.3Z"/>
    <path d="M649.5,319.9c0,.2,0,.5,0,.7l.4,5.8,5.8-2.3c2.1-.8,3.5-2.9,3.6-5.2,0-.2,0-.5,0-.7l-.8-6-5.7,2.5c-2.1.9-3.3,2.9-3.4,5.1Z"/>
    <path d="M647.5,320.1c-.5-2.2-2.3-3.8-4.5-4.2l-6.2-1,.7,5.5c0,.2,0,.5.1.7.4,2.1,2.1,3.7,4.3,4.2l6.1,1.3-.4-5.8c0-.2,0-.5-.1-.7Z"/>
    <path d="M648.1,308c0,.2,0,.5,0,.7l.7,5.8,5.7-2.5c2.1-.9,3.3-3,3.3-5.3,0-.2,0-.5,0-.7l-.4-3c-.2-1-.3-2-.5-3l-5.6,2.7c-2,1-3.3,3.1-3.3,5.3Z"/>
    <path d="M646,308.3c-.6-2.1-2.3-3.8-4.6-4l-6.2-.8c.2.9.3,1.8.5,2.8l.4,2.8c0,.2,0,.4.1.7.5,2.1,2.3,3.6,4.5,4l6.1,1-.7-5.7c0-.2,0-.5-.1-.7Z"/>
    <path d="M646.1,296.1c0,.2,0,.5,0,.7l1,5.7,5.6-2.7c2-1,3.2-3.2,3.1-5.5,0-.2,0-.5,0-.7l-1.1-5.9-5.5,3c-2,1.1-3.2,3.2-3.1,5.4Z"/>
    <path d="M644.1,296.5c-.7-2.1-2.5-3.6-4.7-3.9l-6.2-.5,1,5.5c0,.2,0,.4.2.7.6,2,2.5,3.5,4.7,3.8l6.2.8-1-5.7c0-.2-.1-.5-.2-.7Z"/>
    <path d="M643.8,284.3c0,.2,0,.5.1.7l.7,2.8c.2.9.4,1.9.6,2.8,1.8-1,3.7-2,5.5-3,2-1.1,3-3.3,2.8-5.6,0-.2,0-.5-.1-.7l-1.4-5.9-5.4,3.2c-2,1.2-3,3.3-2.8,5.5Z"/>
    <path d="M641.9,285.4c0-.2-.1-.5-.2-.7-.8-2.1-2.7-3.5-4.9-3.7l-6.2-.3,1.3,5.4c0,.2.1.4.2.6.7,2,2.7,3.4,4.9,3.6,2.1.2,4.1.4,6.2.5-.2-1-.4-1.9-.6-2.8l-.6-2.8Z"/>
    <path d="M640.9,272.6c0,.2,0,.5.1.7.6,1.9.9,3.8,1.4,5.6l5.4-3.2c1.9-1.2,3-3.4,2.6-5.7,0-.2,0-.5-.1-.7l-1.6-5.8-5.2,3.4c-1.9,1.2-2.9,3.4-2.5,5.6Z"/>
    <path d="M637.7,261c0,.2,0,.5.1.7l1.6,5.6,5.2-3.4c1.9-1.2,2.8-3.5,2.5-5.8,0-.2,0-.5-.2-.7l-1.9-5.7-5.1,3.6c-1.9,1.3-2.7,3.5-2.3,5.7Z"/>
    <path d="M638.9,273.1c-.9-2-2.9-3.4-5.1-3.4h-6.2s1.5,5.3,1.5,5.3c0,.2.1.4.2.6.9,2,2.7,3.3,5,3.4l6.2.3c-.5-1.9-.8-3.8-1.4-5.6,0-.2-.2-.5-.2-.7Z"/>
    <path d="M634.1,246.3c-.4,1-.5,2.1-.3,3.2,0,.2.1.5.2.7l1.9,5.5,5.1-3.6c1.8-1.3,2.7-3.6,2.2-5.9,0-.2-.1-.5-.2-.7-.3-.9-.6-1.9-1-2.8l-1.1-2.8-4.9,3.8c-.9.7-1.5,1.6-1.9,2.6Z"/>
    <path d="M635.6,261.6c-.9-2-3-3.3-5.3-3.2l-6.2.2,1.8,5.3c0,.2.1.4.2.6.8,2,2.8,3.2,5.1,3.3h6.2s-1.6-5.5-1.6-5.5c0-.2-.1-.5-.2-.7Z"/>
    <path d="M629.5,238.3c0,.2.1.5.2.7l2.1,5.4,4.9-3.8c1.8-1.4,2.5-3.7,1.9-6,0-.2-.1-.5-.2-.7-.7-1.9-1.4-3.7-2.2-5.6-1.6,1.3-3.2,2.7-4.8,4-1.7,1.5-2.5,3.8-1.9,5.9Z"/>
    <path d="M631.8,250.2c-.5-1-1.2-1.8-2.1-2.3-.9-.5-2-.8-3.2-.7l-6.2.5,1,2.6c.3.9.6,1.8.9,2.6,0,.2.2.4.3.6.9,1.9,3,3.1,5.2,3l6.2-.2-1.9-5.5c0-.2-.2-.4-.3-.7Z"/>
    <path d="M624.8,227.2c0,.2.1.5.2.7.8,1.8,1.6,3.5,2.4,5.3l4.8-4c1.7-1.5,2.3-3.8,1.6-6,0-.2-.2-.5-.3-.7l-2.5-5.5-4.6,4.2c-1.7,1.5-2.3,3.9-1.7,6Z"/>
    <path d="M627.6,239.1c-1.1-1.9-3.2-3.1-5.4-2.8-2.1.2-4.1.5-6.2.7.7,1.7,1.4,3.5,2.1,5.2,0,.2.2.4.3.6,1,1.9,3.1,3,5.4,2.8l6.2-.5-2.1-5.4c0-.2-.2-.4-.3-.6Z"/>
    <path d="M619.7,216.3c0,.2.2.4.3.7l1.3,2.6,1.2,2.6,4.7-4.2c1.7-1.5,2.2-3.9,1.4-6.1,0-.2-.2-.4-.3-.7l-2.7-5.4-4.5,4.4c-1.6,1.6-2.1,4-1.4,6Z"/>
    <path d="M622.9,228.1c-1.2-1.9-3.3-2.9-5.5-2.6l-6.1,1,2.3,5.1c0,.2.2.4.3.6,1.1,1.8,3.3,2.8,5.5,2.6l6.2-.7c-.8-1.8-1.6-3.5-2.4-5.3,0-.2-.2-.4-.3-.6Z"/>
    <path d="M614.2,205.6c0,.2.2.4.3.6.9,1.7,1.8,3.4,2.7,5.2l4.5-4.4c1.6-1.6,2.1-4.1,1.2-6.2,0-.2-.2-.4-.3-.7l-3-5.2-4.3,4.6c-1.5,1.6-2,4-1.1,6.1Z"/>
    <path d="M618.2,217.8c-.1-.2-.2-.4-.4-.6-1.2-1.8-3.5-2.8-5.7-2.4l-6.1,1.2,2.5,5c.1.2.2.4.4.6,1.2,1.8,3.4,2.7,5.6,2.3l6.1-.9-1.2-2.6-1.3-2.6Z"/>
    <path d="M607.7,192c-.1,1.1,0,2.2.4,3.2,0,.2.2.4.3.6l2.9,5,4.3-4.6c1.5-1.7,1.9-4.1,1-6.2,0-.2-.2-.4-.3-.7-1-1.7-2.1-3.4-3.2-5.1l-4.1,4.7c-.7.8-1.2,1.9-1.3,2.9Z"/>
    <path d="M612.3,206.6c-1.3-1.8-3.6-2.6-5.8-2.1l-6.1,1.5,2.8,4.8c.1.2.2.4.4.6,1.3,1.7,3.4,2.6,5.6,2.2l6.1-1.2c-.9-1.7-1.7-3.4-2.6-5.1-.1-.2-.3-.4-.4-.6Z"/>
    <path d="M601.7,185c0,.2.2.4.3.6l3.1,4.9,4.1-4.7c1.5-1.7,1.7-4.2.7-6.2,0-.2-.2-.4-.4-.6l-1.6-2.5c-.6-.8-1.2-1.6-1.7-2.5l-3.9,4.9c-1.4,1.7-1.7,4.2-.7,6.2Z"/>
    <path d="M606.4,196.2c-.6-.9-1.6-1.5-2.6-1.8-1-.3-2.1-.4-3.2,0l-6,1.7c1,1.6,2,3.1,3,4.7.1.2.2.4.4.6,1.3,1.7,3.5,2.5,5.7,1.9l6.1-1.4-2.9-5c-.1-.2-.3-.4-.4-.6Z"/>
    <path d="M594.9,175c.1.2.2.4.4.6l3.4,4.7,3.9-4.9c1.4-1.8,1.5-4.2.4-6.2-.1-.2-.2-.4-.4-.6l-3.5-4.9-3.7,5.1c-1.4,1.8-1.5,4.3-.5,6.2Z"/>
    <path d="M600,186.1c-1.4-1.7-3.7-2.4-5.9-1.7l-5.9,2c.5.8,1.1,1.5,1.6,2.3l1.5,2.4c.1.2.3.4.4.5,1.4,1.6,3.6,2.3,5.8,1.7l6-1.7-3.1-4.9c-.1-.2-.3-.4-.4-.6Z"/>
    <path d="M593.2,176.3c-1.5-1.6-3.8-2.2-5.9-1.5l-5.8,2.2,3.2,4.6c.1.2.3.4.4.5,1.4,1.6,3.8,2.1,5.9,1.4l5.9-1.9-3.3-4.7c-.1-.2-.3-.4-.5-.5Z"/>
    <path d="M587.7,165.4c.1.2.3.4.4.6,1.2,1.5,2.4,3,3.6,4.6,1.3-1.7,2.5-3.4,3.7-5,1.3-1.8,1.4-4.3.2-6.2-.1-.2-.3-.4-.4-.6l-3.7-4.7-3.5,5.2c-1.3,1.9-1.3,4.3-.2,6.2Z"/>
    <path d="M586.1,166.7c-1.6-1.6-3.9-2.1-6-1.2l-5.7,2.4,3.5,4.4c.1.2.3.4.5.5,1.5,1.5,3.9,2,6,1.2,2-.7,3.9-1.5,5.8-2.2-1.1-1.6-2.4-3-3.5-4.6-.1-.2-.3-.4-.5-.5Z"/>
    <path d="M580.1,156c.1.2.3.4.4.6.6.7,1.3,1.5,1.9,2.2l1.8,2.3,3.5-5.2c.6-.9,1-2,.9-3.1,0-1.1-.4-2.2-1-3.1-.1-.2-.3-.4-.4-.6l-3.9-4.5-3.3,5.3c-1.2,1.9-1.1,4.3,0,6.2Z"/>
    <path d="M579,157.9c-.2-.2-.3-.3-.5-.5-1.6-1.5-4-1.9-6.1-.9l-5.6,2.6,3.7,4.2c.2.2.3.3.5.5.8.7,1.8,1.2,2.8,1.3,1,.2,2.1,0,3.2-.4l5.7-2.4-1.8-2.3c-.6-.7-1.3-1.5-1.9-2.2Z"/>
    <path d="M572.2,146.9c.1.2.3.4.5.5l3.8,4.4,3.3-5.3c1.2-1.9,1.1-4.4-.3-6.3-.1-.2-.3-.4-.5-.6l-4.1-4.4-3.1,5.4c-1.1,2-1,4.4.4,6.2Z"/>
    <path d="M570.7,148.4c-1.7-1.4-4.1-1.7-6.1-.7l-5.5,2.9,3.9,4c.2.2.3.3.5.5,1.6,1.4,3.9,1.7,6,.8l5.6-2.6-3.8-4.4c-.2-.2-.3-.3-.5-.5Z"/>
    <path d="M562.7,135.2c.1,1.1.5,2.1,1.2,3,.1.2.3.4.5.6l4,4.2,3.1-5.4c1.1-2,.9-4.4-.5-6.3-.1-.2-.3-.4-.5-.6-1.4-1.4-2.9-2.8-4.3-4.2l-2.8,5.5c-.5,1-.7,2.1-.6,3.2Z"/>
    <path d="M555.2,129.9c.1.2.3.4.5.5l4.2,4,2.8-5.5c1-2,.7-4.5-.8-6.2-.1-.2-.3-.4-.5-.5l-2.2-2.1c-.7-.7-1.5-1.3-2.3-2l-2.6,5.6c-.9,2-.6,4.5.8,6.2Z"/>
    <path d="M562.4,139.7c-.8-.7-1.9-1.1-3-1.2-1.1,0-2.2.2-3.2.7l-5.4,3.1c1.3,1.3,2.7,2.5,4,3.9.2.2.3.3.5.5,1.7,1.3,4,1.6,6,.5l5.5-2.8-4-4.2c-.2-.2-.3-.3-.5-.5Z"/>
    <path d="M546.3,121.8c.2.2.3.3.5.5l4.4,3.8,2.6-5.6c.9-2,.5-4.5-1.1-6.2-.2-.2-.3-.4-.5-.5l-4.6-3.9-2.4,5.8c-.9,2.1-.5,4.5,1,6.2Z"/>
    <path d="M553.8,131.4c-1.8-1.3-4.1-1.5-6.1-.3l-5.3,3.3c.7.6,1.4,1.2,2.1,1.8l2,1.9c.2.2.3.3.5.4,1.7,1.3,4.1,1.4,6,.3l5.4-3.1-4.2-4c-.2-.2-.4-.3-.5-.5Z"/>
    <path d="M544.9,123.4c-1.8-1.2-4.2-1.3-6.1,0l-5.1,3.5,4.2,3.7c.2.2.3.3.5.4,1.8,1.2,4.2,1.2,6.1,0l5.3-3.3-4.4-3.8c-.2-.2-.4-.3-.6-.4Z"/>
    <path d="M537.5,114.6c1.5,1.2,3.1,2.4,4.5,3.6.8-1.9,1.6-3.8,2.4-5.8.8-2.1.3-4.5-1.3-6.1-.2-.2-.3-.3-.5-.5l-4.7-3.7-2.2,5.9c-.8,2.1-.3,4.5,1.3,6.1.2.2.3.3.5.5Z"/>
    <path d="M528,107.3c.8.6,1.6,1.1,2.4,1.7l2.3,1.8,2.2-5.9c.4-1.1.4-2.2.2-3.3-.3-1-.9-2-1.7-2.8-.2-.2-.4-.3-.6-.5l-4.9-3.5-1.9,6c-.7,2.1,0,4.5,1.6,6,.2.2.4.3.6.5Z"/>
    <path d="M529.5,123.5c1.8,1.1,4.2,1,6.1-.3,1.7-1.2,3.5-2.4,5.2-3.5-1.5-1.2-3-2.4-4.5-3.6-.2-.1-.4-.3-.6-.4-1.9-1.1-4.3-1.1-6.1.2l-5,3.7,4.4,3.5c.2.1.4.3.6.4Z"/>
    <path d="M517.6,99.9c.2.1.4.3.6.4l4.7,3.4,1.9-6c.7-2.1,0-4.6-1.7-6.1-.2-.2-.4-.3-.6-.4l-5.1-3.2-1.7,6c-.6,2.2.1,4.5,1.8,5.9Z"/>
    <path d="M520.3,116.5c.9.5,2,.7,3.1.6,1.1,0,2.1-.4,3-1.1l5-3.7-2.3-1.8c-.8-.6-1.6-1.1-2.3-1.7-.2-.1-.4-.3-.6-.4-1.9-1.1-4.4-.9-6.1.5l-4.9,3.9,4.6,3.2c.2.1.4.3.6.4Z"/>
    <path d="M506.3,92.2c.3.5.7.9,1.1,1.2.2.2.4.3.6.4l4.9,3.1,1.7-6c.6-2.2-.2-4.5-2-6-.2-.2-.4-.3-.6-.4-1.7-1.1-3.5-2-5.2-3l-1.4,6.1c-.3,1.1-.2,2.2.2,3.2.2.5.4,1,.8,1.4Z"/>
    <path d="M510.9,109.8c1.9.9,4.2.7,6-.7l4.9-3.9-4.7-3.3c-.2-.1-.4-.2-.6-.3-2-1-4.4-.7-6.1.8l-4.7,4.1,4.7,3c.2.1.4.2.6.3Z"/>
    <path d="M503.2,94.7c-1.1.2-2.1.7-2.9,1.4l-4.5,4.3c1.6.9,3.3,1.8,4.8,2.8.2.1.4.2.6.3,1.9.9,4.3.6,6-.9l4.7-4.1-4.9-3.1c-.2-.1-.4-.2-.6-.3-.5-.2-1-.4-1.5-.5-.5,0-1.1,0-1.6,0Z"/>
    <path d="M497,87.3c.2.1.4.3.6.4l5,2.9,1.4-6.1c.5-2.2-.4-4.5-2.2-5.9-.2-.2-.4-.3-.6-.4l-2.6-1.5c-.9-.5-1.8-.9-2.7-1.4l-1.2,6.1c-.4,2.2.4,4.5,2.2,5.8Z"/>
    <path d="M485.6,94.8c.8.4,1.7.8,2.5,1.3l2.4,1.4c.2.1.4.2.6.3,2,.8,4.3.4,5.9-1.2l4.5-4.3-5-2.9c-.2-.1-.4-.2-.6-.3-2-.8-4.4-.5-6,1.2l-4.4,4.5Z"/>
    <path d="M486.4,81.6c.2.1.4.3.6.4l5.2,2.6,1.2-6.1c.4-2.2-.6-4.5-2.5-5.7-.2-.1-.4-.3-.6-.4l-5.4-2.7-1,6.2c-.4,2.2.6,4.5,2.5,5.7Z"/>
    <path d="M475.3,89.5l5,2.6c.2.1.4.2.6.3,2,.7,4.3.2,5.9-1.4l4.4-4.5-5.1-2.6c-.2-.1-.4-.2-.7-.3-2.1-.8-4.4-.2-5.9,1.4l-4.2,4.6Z"/>
    <path d="M475.6,76.4c.2.1.4.2.6.3,1.8.8,3.6,1.5,5.3,2.4.3-2.1.7-4.1,1-6.2.3-2.2-.8-4.4-2.7-5.6-.2-.1-.4-.2-.6-.3l-5.5-2.5-.7,6.2c-.3,2.3.8,4.4,2.7,5.6Z"/>
    <path d="M464.5,71.6c.2.1.4.2.6.3,1.8.7,3.6,1.5,5.3,2.3l.7-6.2c.1-1.1-.1-2.2-.6-3.2-.5-1-1.3-1.8-2.3-2.3-.2-.1-.4-.2-.7-.3l-5.6-2.2-.5,6.2c-.2,2.3,1,4.4,2.9,5.4Z"/>
    <path d="M470.5,87.3c2,.6,4.3,0,5.9-1.7,1.4-1.6,2.8-3.1,4.2-4.6-1.7-.9-3.5-1.6-5.2-2.4-.2,0-.4-.2-.7-.2-2.1-.7-4.4,0-5.9,1.7l-4,4.8,5.1,2.3c.2,0,.4.2.6.2Z"/>
    <path d="M453.3,67.1c.2,0,.4.2.6.3l5.4,2.1.5-6.2c.2-2.3-1.1-4.4-3.1-5.5-.2-.1-.4-.2-.7-.3l-5.7-1.9-.2,6.2c0,2.3,1.2,4.3,3.2,5.3Z"/>
    <path d="M459.9,82.7c1,.3,2.1.2,3.1-.1,1-.3,1.9-.9,2.6-1.8l4-4.7c-1.8-.8-3.5-1.6-5.3-2.3-.2,0-.5-.2-.7-.2-2.1-.6-4.4.2-5.8,2l-3.8,4.9,5.2,2c.2,0,.4.2.6.2Z"/>
    <path d="M441.9,63.3c.2.1.4.2.7.3l5.5,1.9.2-6.2c0-2.3-1.3-4.3-3.4-5.3-.2-.1-.4-.2-.7-.3-1.9-.7-3.8-1.2-5.8-1.7v6.2c0,2.2,1.4,4.2,3.4,5.2Z"/>
    <path d="M449.2,78.4c2.1.5,4.3-.3,5.7-2.1l3.8-4.9-5.4-2.1c-.2,0-.5-.2-.7-.2-2.2-.5-4.4.4-5.8,2.2l-3.6,5.1,5.3,1.8c.2,0,.4.1.7.2Z"/>
    <path d="M430.3,59.9c.2,0,.4.2.7.2l5.6,1.6v-6.2c0-2.3-1.5-4.3-3.6-5.1-.2-.1-.4-.2-.7-.2-1.9-.5-3.8-1.2-5.8-1.6.1,2.1.2,4.1.3,6.2,0,2.3,1.5,4.3,3.6,5.1Z"/>
    <path d="M438.2,74.7c2.1.4,4.3-.5,5.6-2.3l3.6-5.1-5.5-1.9c-.2,0-.5-.1-.7-.2-2.2-.5-4.4.5-5.6,2.4l-3.4,5.3c1.8.5,3.6,1,5.4,1.6.2,0,.4.1.7.2Z"/>
    <path d="M418.7,56.9c.2,0,.4.2.7.2l5.7,1.3-.3-6.2c-.1-2.2-1.6-4.2-3.8-5-.2,0-.5-.2-.7-.2l-5.9-1.4.5,6.3c.2,2.3,1.7,4.2,3.8,5Z"/>
    <path d="M421.1,69.8c1.8.4,3.6,1,5.4,1.5.2,0,.4.1.7.1,2.1.3,4.3-.7,5.5-2.6l3.4-5.2-5.6-1.6c-.2,0-.5-.1-.7-.1-2.2-.3-4.4.6-5.5,2.6-1.1,1.8-2.1,3.6-3.2,5.4Z"/>
    <path d="M409.8,67.2l5.4,1.3c.2,0,.4,0,.7.1,2.1.2,4.2-.9,5.4-2.8l3.2-5.4-5.6-1.3c-.2,0-.5,0-.7-.1-2.2-.2-4.3.9-5.4,2.8l-2.9,5.5Z"/>
    <path d="M391.8,56.6c1.6,1.6,4,2,6.1,1.2.2,0,.4-.2.6-.3l2.5-1.4c.9-.4,1.7-.9,2.6-1.3l-4.4-4.5c-1.6-1.7-4-2.1-6.1-1.2-.2,0-.4.2-.7.3l-3.8,2.1c-11.1-1.4-22.4-2.2-33.8-2.4v2c11.3.2,22.5,1,33.5,2.4l3.3,3.2Z"/>
    <path d="M402.9,49.6c.3,2.2,1.8,4.1,4,4.8.2,0,.5.1.7.2l2.9.5c.9.2,1.9.4,2.8.6l-.5-6.3c-.2-2.3-1.8-4.1-4-4.8-.2,0-.5-.1-.7-.2l-5.9-1.1c-15.4-2.6-31.2-4-47.1-4.3v2c16,.3,31.9,1.7,47.4,4.4l.5,4.1Z"/>
    <path d="M404,66.1c.2,0,.4,0,.7,0,2.1.1,4.2-1.1,5.3-3.1l3-5.4c-.9-.2-1.9-.4-2.8-.6l-2.8-.5c-.2,0-.5,0-.7,0-2.2-.1-4.3,1.1-5.3,3.1l-1.8,3.7c-14.5-2.5-29.4-3.9-44.4-4.1v2c14.7.2,29.2,1.6,43.5,4l5.5,1Z"/>
  </g>
  <g id="aspa-serving" fill="#fce275">
    <path d="M218,547.5c.2,2.2,1.2,4.2,3.6,4.2s3.2-1.5,3.2-3.5-1.1-3.5-4.5-5.1c-4.6-2.2-6.5-4.2-6.5-8.2s2.8-7.3,7.7-7.3,7.6,4.1,7.7,7.6h-4.8c-.1-1.6-.5-3.8-3-3.8s-2.8,1.2-2.8,3.1.9,2.9,4,4.4c4.8,2.2,7,4.4,7,8.9s-2.6,7.8-8.4,7.8-8.1-4-8.3-8h4.8Z"/>
    <path d="M246.4,543h-8.7v7.9h9.8l-.6,4.2h-13.9v-27.1h13.9v4.2h-9.1v6.6h8.7v4.2Z"/>
    <path d="M255.1,543.5v11.6h-4.8v-27.1h8.3c4.9,0,7.7,2.6,7.7,7.4s-2.1,5.6-3.5,6.2c2.1,1,3.1,2.8,3.1,6.8v1.1c0,3.1.2,4.2.4,5.7h-4.7c-.4-1.2-.4-3.4-.4-5.7v-1c0-3.6-.8-4.9-3.9-4.9h-2.1ZM255.1,539.5h2.3c2.9,0,4.1-1.2,4.1-4s-1.1-3.7-3.6-3.7h-2.8v7.7Z"/>
    <path d="M274.1,555l-6.7-27.1h5.2l2.5,11.5c.8,3.6,1.5,7.6,1.8,10.4h0c.3-2.7,1.3-6.8,2.1-10.3l2.4-11.6h5.1l-6.8,27.1h-5.7Z"/>
    <path d="M293.8,527.9v27.1h-4.8v-27.1h4.8Z"/>
    <path d="M298,555v-27.1h5.5c5.6,15,6.7,17.8,7,19.2h0c-.2-3.2-.2-7.2-.2-11.7v-7.5h4.4v27.1h-5.3c-5.8-16-6.8-18.8-7.2-20.1h0c.2,3.4.2,7.3.2,12.2v7.9h-4.4Z"/>
    <path d="M335.1,555h-3.7c-.1-.8-.2-1.4-.2-2.3-1.2,2.2-3.1,2.8-5.4,2.8-5.7,0-7.7-5-7.7-13.8s3.4-14.1,9.2-14.1,7.7,6.3,7.8,7.9h-4.8c0-1.1-.3-3.8-3.2-3.8s-4,4.2-4,10,.8,9.8,3.8,9.8,3.4-2,3.4-6v-1.5h-3.6v-4.1h8.4v15.2Z"/>
    <path d="M363.4,544.9c0-4.6,0-9.9.2-13h-.1c-.9,5.2-2.4,14.3-4.2,23h-4.4c-1.3-8.2-2.9-17.9-3.8-23.1h-.2c.2,3.2.3,8.8.3,13.5v9.6h-4.4v-27.1h7.2c1.4,7.5,2.6,15,3.2,19h0c.6-3.7,2.2-11.8,3.6-19h7.1v27.1h-4.6v-10.1Z"/>
    <path d="M385.8,543h-8.7v7.9h9.8l-.6,4.2h-13.9v-27.1h13.9v4.2h-9.1v6.6h8.7v4.2Z"/>
    <path d="M406.3,544.9c0-4.6,0-9.9.2-13h-.1c-.9,5.2-2.4,14.3-4.2,23h-4.4c-1.3-8.2-2.9-17.9-3.8-23.1h-.2c.2,3.2.3,8.8.3,13.5v9.6h-4.4v-27.1h7.2c1.4,7.5,2.6,15,3.2,19h0c.6-3.7,2.2-11.8,3.6-19h7.1v27.1h-4.6v-10.1Z"/>
    <path d="M415.2,527.9h8.2c4.7,0,7.3,2.6,7.3,6.9s-1.6,5.1-3.1,5.6c1.9.8,3.9,2.5,3.9,6.6s-3.4,8-8.2,8h-8.2v-27.1ZM422.3,538.7c3,0,3.8-1.2,3.8-3.5s-1.2-3.4-3.6-3.4h-2.5v6.9h2.3ZM420,551.3h2.9c2.4,0,3.8-1.2,3.8-4.3s-1.2-4.4-4.3-4.4h-2.4v8.7Z"/>
    <path d="M448.3,543h-8.7v7.9h9.8l-.6,4.2h-13.9v-27.1h13.9v4.2h-9.1v6.6h8.7v4.2Z"/>
    <path d="M457,543.5v11.6h-4.8v-27.1h8.3c4.9,0,7.7,2.6,7.7,7.4s-2.1,5.6-3.5,6.2c2.1,1,3.1,2.8,3.1,6.8v1.1c0,3.1.2,4.2.4,5.7h-4.7c-.4-1.2-.4-3.4-.4-5.7v-1c0-3.6-.8-4.9-3.9-4.9h-2.1ZM457,539.5h2.3c2.9,0,4.1-1.2,4.1-4s-1.1-3.7-3.6-3.7h-2.8v7.7Z"/>
    <path d="M475,547.5c.2,2.2,1.2,4.2,3.6,4.2s3.2-1.5,3.2-3.5-1.1-3.5-4.5-5.1c-4.6-2.2-6.5-4.2-6.5-8.2s2.8-7.3,7.7-7.3,7.6,4.1,7.7,7.6h-4.8c-.1-1.6-.5-3.8-3-3.8s-2.8,1.2-2.8,3.1.9,2.9,4,4.4c4.8,2.2,7,4.4,7,8.9s-2.6,7.8-8.4,7.8-8.1-4-8.3-8h4.8Z"/>
    <path d="M313.5,587.5c.2,2.2,1.2,4.2,3.6,4.2s3.2-1.5,3.2-3.5-1.1-3.5-4.5-5.1c-4.6-2.2-6.5-4.2-6.5-8.2s2.8-7.3,7.7-7.3,7.6,4.1,7.7,7.6h-4.8c-.1-1.6-.5-3.8-3-3.8s-2.8,1.2-2.8,3.1.9,2.9,4,4.4c4.8,2.2,7,4.4,7,8.9s-2.6,7.8-8.4,7.8-8.1-4-8.3-8h4.8Z"/>
    <path d="M333.3,567.9v27.1h-4.8v-27.1h4.8Z"/>
    <path d="M337.5,595v-27.1h5.5c5.6,15,6.7,17.8,7,19.2h0c-.2-3.2-.2-7.2-.2-11.7v-7.5h4.4v27.1h-5.3c-5.8-16-6.8-18.8-7.2-20.1h0c.2,3.4.2,7.3.2,12.2v7.9h-4.4Z"/>
    <path d="M374.4,587.1c-.1,1.4-.6,8.4-8.1,8.4s-8.6-6.8-8.6-14,2.6-13.9,8.9-13.9,7.7,6.2,7.8,8.3h-4.8c0-.9-.1-4.2-3.1-4.2s-3.8,3.7-3.8,9.9.5,9.9,3.7,9.9,3.1-3.3,3.2-4.3h4.8Z"/>
    <path d="M390.7,583h-8.7v7.9h9.8l-.6,4.2h-13.9v-27.1h13.9v4.2h-9.1v6.6h8.7v4.2Z"/>
  </g>
  <g id="aspa-full-text" fill="#eee">
    <path d="M121,425.7l-1.4,6.8h-4.8l6.3-27.1h6.3l6.3,27.1h-5.1l-1.3-6.8h-6.3ZM126.4,421.5c-1-5.2-1.8-9-2.2-11.6h-.1c-.3,2.5-1.2,6.6-2.2,11.6h4.6Z"/>
    <path d="M136.1,405.4h7c7,0,9.7,4.5,9.7,13s-2.6,14.1-10,14.1h-6.7v-27.1ZM141,428.5h1.7c3.8,0,5.1-2.8,5.1-10.1s-1.2-9-5.1-9h-1.8v19.1Z"/>
    <path d="M172.8,422.4c0-4.6,0-9.9.2-13h-.1c-.9,5.2-2.4,14.3-4.2,23h-4.4c-1.3-8.2-2.9-17.9-3.8-23.1h-.2c.2,3.2.3,8.8.3,13.5v9.6h-4.4v-27.1h7.2c1.4,7.5,2.6,15,3.2,19h0c.6-3.7,2.2-11.8,3.6-19h7.1v27.1h-4.6v-10.1Z"/>
    <path d="M186.5,405.4v27.1h-4.8v-27.1h4.8Z"/>
    <path d="M190.8,432.5v-27.1h5.5c5.6,15,6.7,17.8,7,19.2h0c-.2-3.2-.2-7.2-.2-11.7v-7.5h4.4v27.1h-5.3c-5.8-16-6.8-18.8-7.2-20.1h0c.2,3.4.2,7.3.2,12.2v7.9h-4.4Z"/>
    <path d="M216.5,405.4v27.1h-4.8v-27.1h4.8Z"/>
    <path d="M224.2,424.9c.2,2.2,1.2,4.2,3.6,4.2s3.2-1.5,3.2-3.5-1.1-3.5-4.5-5.1c-4.6-2.2-6.5-4.2-6.5-8.2s2.8-7.3,7.7-7.3,7.6,4.1,7.7,7.6h-4.8c-.1-1.6-.5-3.8-3-3.8s-2.8,1.2-2.8,3.1.9,2.9,4,4.4c4.8,2.2,7,4.4,7,8.9s-2.6,7.8-8.4,7.8-8.1-4-8.3-8h4.8Z"/>
    <path d="M243.2,409.6h-5.8v-4.2h16.4v4.2h-5.8v22.8h-4.8v-22.8Z"/>
    <path d="M261,420.9v11.6h-4.8v-27.1h8.3c4.9,0,7.7,2.6,7.7,7.4s-2.1,5.6-3.5,6.2c2.1,1,3.1,2.8,3.1,6.8v1.1c0,3.1.2,4.2.4,5.7h-4.7c-.4-1.2-.4-3.4-.4-5.7v-1c0-3.6-.8-4.9-3.9-4.9h-2.1ZM261,417h2.3c2.9,0,4.1-1.2,4.1-4s-1.1-3.7-3.6-3.7h-2.8v7.7Z"/>
    <path d="M280.3,425.7l-1.4,6.8h-4.8l6.3-27.1h6.3l6.3,27.1h-5.1l-1.3-6.8h-6.3ZM285.7,421.5c-1-5.2-1.8-9-2.2-11.6h-.1c-.3,2.5-1.2,6.6-2.2,11.6h4.6Z"/>
    <path d="M297.4,409.6h-5.8v-4.2h16.4v4.2h-5.8v22.8h-4.8v-22.8Z"/>
    <path d="M315.3,405.4v27.1h-4.8v-27.1h4.8Z"/>
    <path d="M324.3,432.5l-6.7-27.1h5.2l2.5,11.5c.8,3.6,1.5,7.6,1.8,10.4h0c.3-2.7,1.3-6.8,2.1-10.3l2.4-11.6h5.1l-6.8,27.1h-5.7Z"/>
    <path d="M352.6,420.4h-8.7v7.9h9.8l-.6,4.2h-13.9v-27.1h13.9v4.2h-9.1v6.6h8.7v4.2Z"/>
    <path d="M384.4,416.3l-5.2,9.1,5.8,7.1h-6l-2.4-2.9c-1.5,2.1-3.2,3.3-6.4,3.3-4.6,0-7.2-2.9-7.2-7.5s1.1-5.1,4.2-7.3c-1.5-2.1-2.5-3.9-2.5-6.4s2-6.6,6.5-6.6,6.4,2.7,6.4,6.2-1.3,5-4.5,7l3.1,3.8,3.2-5.8h4.8ZM374,426.4l-4.5-5.6c-1,1-1.7,2.1-1.7,4s1,3.9,2.9,3.9,2.2-.6,3.3-2.4ZM369.3,411.4c0,1.4.6,2.6,1.9,4.2,1.7-1.3,2.2-2.5,2.2-4.2s-.5-2.6-2.1-2.6-2,1.2-2,2.7Z"/>
    <path d="M398.8,424.9c.2,2.2,1.2,4.2,3.6,4.2s3.2-1.5,3.2-3.5-1.1-3.5-4.5-5.1c-4.6-2.2-6.5-4.2-6.5-8.2s2.8-7.3,7.7-7.3,7.6,4.1,7.7,7.6h-4.8c-.1-1.6-.5-3.8-3-3.8s-2.8,1.2-2.8,3.1.9,2.9,4,4.4c4.8,2.2,7,4.4,7,8.9s-2.6,7.8-8.4,7.8-8.1-4-8.3-8h4.8Z"/>
    <path d="M418.3,405.4v18.6c0,2.2.6,4.8,3.6,4.8s3.5-2.2,3.5-4.8v-18.7h4.8v18.8c0,4.8-1.9,8.8-8.4,8.8s-8.3-3.7-8.3-8.8v-18.8h4.8Z"/>
    <path d="M434.3,405.4h8.1c4.5,0,7.8,2.7,7.8,8.1s-3,8-8.2,8h-2.9v11h-4.8v-27.1ZM439.2,417.6h2.4c2.7,0,3.9-1.4,3.9-4.2s-1.4-4.1-3.6-4.1h-2.6v8.3Z"/>
    <path d="M466.5,420.4h-8.7v7.9h9.8l-.6,4.2h-13.9v-27.1h13.9v4.2h-9.1v6.6h8.7v4.2Z"/>
    <path d="M475.2,420.9v11.6h-4.8v-27.1h8.3c4.9,0,7.7,2.6,7.7,7.4s-2.1,5.6-3.5,6.2c2.1,1,3.1,2.8,3.1,6.8v1.1c0,3.1.2,4.2.4,5.7h-4.7c-.4-1.2-.4-3.4-.4-5.7v-1c0-3.6-.8-4.9-3.9-4.9h-2.1ZM475.2,417h2.3c2.9,0,4.1-1.2,4.1-4s-1.1-3.7-3.6-3.7h-2.8v7.7Z"/>
    <path d="M494.2,432.5l-6.7-27.1h5.2l2.5,11.5c.8,3.6,1.5,7.6,1.8,10.4h0c.3-2.7,1.3-6.8,2.1-10.3l2.4-11.6h5.1l-6.8,27.1h-5.7Z"/>
    <path d="M513.9,405.4v27.1h-4.8v-27.1h4.8Z"/>
    <path d="M521.5,424.9c.2,2.2,1.2,4.2,3.6,4.2s3.2-1.5,3.2-3.5-1.1-3.5-4.5-5.1c-4.6-2.2-6.5-4.2-6.5-8.2s2.8-7.3,7.7-7.3,7.6,4.1,7.7,7.6h-4.8c-.1-1.6-.5-3.8-3-3.8s-2.8,1.2-2.8,3.1.9,2.9,4,4.4c4.8,2.2,7,4.4,7,8.9s-2.6,7.8-8.4,7.8-8.1-4-8.3-8h4.8Z"/>
    <path d="M553.2,418.8c0,9.9-2.7,14.2-8.9,14.2s-8.7-4.2-8.7-14.3,3.3-13.7,8.9-13.7,8.7,4.4,8.7,13.8ZM540.6,418.6c0,6.4,1,10.2,3.8,10.2s3.8-3.5,3.8-10.2-.9-9.6-3.8-9.6-3.8,3.5-3.8,9.6Z"/>
    <path d="M561.5,420.9v11.6h-4.8v-27.1h8.3c4.9,0,7.7,2.6,7.7,7.4s-2.1,5.6-3.5,6.2c2.1,1,3.1,2.8,3.1,6.8v1.1c0,3.1.2,4.2.4,5.7h-4.7c-.4-1.2-.4-3.4-.4-5.7v-1c0-3.6-.8-4.9-3.9-4.9h-2.1ZM561.5,417h2.3c2.9,0,4.1-1.2,4.1-4s-1.1-3.7-3.6-3.7h-2.8v7.7Z"/>
    <path d="M580.3,432.5v-9.6c0-.3,0-.6-.2-.9l-6.8-16.6h5.4c1.5,4.2,3.4,9.5,4.2,12.4,1-3.3,2.8-8.4,4.2-12.4h5.1l-6.9,16.7c0,.2-.2.5-.2.9v9.5h-4.9Z"/>
    <path d="M172.2,445.4h8.1c4.5,0,7.8,2.7,7.8,8.1s-3,8-8.2,8h-2.9v11h-4.8v-27.1ZM177,457.6h2.4c2.7,0,3.9-1.4,3.9-4.2s-1.4-4.1-3.6-4.1h-2.6v8.3Z"/>
    <path d="M204.4,460.4h-8.7v7.9h9.8l-.6,4.2h-13.9v-27.1h13.9v4.2h-9.1v6.6h8.7v4.2Z"/>
    <path d="M213.1,460.9v11.6h-4.8v-27.1h8.3c4.9,0,7.7,2.6,7.7,7.4s-2.1,5.6-3.5,6.2c2.1,1,3.1,2.8,3.1,6.8v1.1c0,3.1.2,4.2.4,5.7h-4.7c-.4-1.2-.4-3.4-.4-5.7v-1c0-3.6-.8-4.9-3.9-4.9h-2.1ZM213.1,457h2.3c2.9,0,4.1-1.2,4.1-4s-1.1-3.7-3.6-3.7h-2.8v7.7Z"/>
    <path d="M231.1,464.9c.2,2.2,1.2,4.2,3.6,4.2s3.2-1.5,3.2-3.5-1.1-3.5-4.5-5.1c-4.6-2.2-6.5-4.2-6.5-8.2s2.8-7.3,7.7-7.3,7.6,4.1,7.7,7.6h-4.8c-.1-1.6-.5-3.8-3-3.8s-2.8,1.2-2.8,3.1.9,2.9,4,4.4c4.8,2.2,7,4.4,7,8.9s-2.6,7.8-8.4,7.8-8.1-4-8.3-8h4.8Z"/>
    <path d="M262.8,458.8c0,9.9-2.7,14.2-8.9,14.2s-8.7-4.2-8.7-14.3,3.3-13.7,8.9-13.7,8.7,4.4,8.7,13.8ZM250.1,458.6c0,6.4,1,10.2,3.8,10.2s3.8-3.5,3.8-10.2-.9-9.6-3.8-9.6-3.8,3.5-3.8,9.6Z"/>
    <path d="M266.2,472.5v-27.1h5.5c5.6,15,6.7,17.8,7,19.2h0c-.2-3.2-.2-7.2-.2-11.7v-7.5h4.4v27.1h-5.3c-5.8-16-6.8-18.8-7.2-20.1h0c.2,3.4.2,7.3.2,12.2v7.9h-4.4Z"/>
    <path d="M287.1,472.5v-27.1h5.5c5.6,15,6.7,17.8,7,19.2h0c-.2-3.2-.2-7.2-.2-11.7v-7.5h4.4v27.1h-5.3c-5.8-16-6.8-18.8-7.2-20.1h0c.2,3.4.2,7.3.2,12.2v7.9h-4.4Z"/>
    <path d="M321.5,460.4h-8.7v7.9h9.8l-.6,4.2h-13.9v-27.1h13.9v4.2h-9.1v6.6h8.7v4.2Z"/>
    <path d="M325.4,445.4h4.8v23h9.3l-.5,4.1h-13.6v-27.1Z"/>
    <path d="M353.4,465.7l-1.4,6.8h-4.8l6.3-27.1h6.3l6.3,27.1h-5.1l-1.3-6.8h-6.3ZM358.8,461.5c-1-5.2-1.8-9-2.2-11.6h-.1c-.3,2.5-1.2,6.6-2.2,11.6h4.6Z"/>
    <path d="M371.9,464.9c.2,2.2,1.2,4.2,3.6,4.2s3.2-1.5,3.2-3.5-1.1-3.5-4.5-5.1c-4.6-2.2-6.5-4.2-6.5-8.2s2.8-7.3,7.7-7.3,7.6,4.1,7.7,7.6h-4.8c-.1-1.6-.5-3.8-3-3.8s-2.8,1.2-2.8,3.1.9,2.9,4,4.4c4.8,2.2,7,4.4,7,8.9s-2.6,7.8-8.4,7.8-8.1-4-8.3-8h4.8Z"/>
    <path d="M390.7,464.9c.2,2.2,1.2,4.2,3.6,4.2s3.2-1.5,3.2-3.5-1.1-3.5-4.5-5.1c-4.6-2.2-6.5-4.2-6.5-8.2s2.8-7.3,7.7-7.3,7.6,4.1,7.7,7.6h-4.8c-.1-1.6-.5-3.8-3-3.8s-2.8,1.2-2.8,3.1.9,2.9,4,4.4c4.8,2.2,7,4.4,7,8.9s-2.6,7.8-8.4,7.8-8.1-4-8.3-8h4.8Z"/>
    <path d="M422.4,458.8c0,9.9-2.7,14.2-8.9,14.2s-8.7-4.2-8.7-14.3,3.3-13.7,8.9-13.7,8.7,4.4,8.7,13.8ZM409.8,458.6c0,6.4,1,10.2,3.8,10.2s3.8-3.5,3.8-10.2-.9-9.6-3.8-9.6-3.8,3.5-3.8,9.6Z"/>
    <path d="M441.8,464.6c-.1,1.4-.6,8.4-8.1,8.4s-8.6-6.8-8.6-14,2.6-13.9,8.9-13.9,7.7,6.2,7.8,8.3h-4.8c0-.9-.1-4.2-3.1-4.2s-3.8,3.7-3.8,9.9.5,9.9,3.7,9.9,3.1-3.3,3.2-4.3h4.8Z"/>
    <path d="M449.5,445.4v27.1h-4.8v-27.1h4.8Z"/>
    <path d="M458.1,465.7l-1.4,6.8h-4.8l6.3-27.1h6.3l6.3,27.1h-5.1l-1.3-6.8h-6.3ZM463.5,461.5c-1-5.2-1.8-9-2.2-11.6h-.1c-.3,2.5-1.2,6.6-2.2,11.6h4.6Z"/>
    <path d="M475.2,449.6h-5.8v-4.2h16.4v4.2h-5.8v22.8h-4.8v-22.8Z"/>
    <path d="M493.1,445.4v27.1h-4.8v-27.1h4.8Z"/>
    <path d="M514.1,458.8c0,9.9-2.7,14.2-8.9,14.2s-8.7-4.2-8.7-14.3,3.3-13.7,8.9-13.7,8.7,4.4,8.7,13.8ZM501.5,458.6c0,6.4,1,10.2,3.8,10.2s3.8-3.5,3.8-10.2-.9-9.6-3.8-9.6-3.8,3.5-3.8,9.6Z"/>
    <path d="M517.6,472.5v-27.1h5.5c5.6,15,6.7,17.8,7,19.2h0c-.2-3.2-.2-7.2-.2-11.7v-7.5h4.4v27.1h-5.3c-5.8-16-6.8-18.8-7.2-20.1h0c.2,3.4.2,7.3.2,12.2v7.9h-4.4Z"/>
  </g>
</svg>